<svg width="1920" height="192" viewBox="0 0 1920 192" fill="none" xmlns="http://www.w3.org/2000/svg">
<path d="M1791.69 45.0329C1762.71 16.1536 1689.42 -8.98365 1591.06 47.3747C1492.7 103.733 1383.68 32.671 1300.07 32.671C1216.46 32.671 1199.26 0 1108.27 0C1017.29 0 990.895 29.8957 960 65.347C929.105 100.798 863.425 76.6675 831.685 45.0329C802.705 16.1536 729.42 -8.98365 631.06 47.3747C532.7 103.733 423.685 32.671 340.075 32.671C256.465 32.671 239.255 0 148.27 0C57.285 0 35.13 35.8698 0 65.347V192H1920V65.347C1892.96 92.3577 1823.43 76.6675 1791.69 45.0329Z" fill="url(#paint0_linear_1267_7900)"/>
<defs>
<linearGradient id="paint0_linear_1267_7900" x1="960" y1="0" x2="960" y2="84.204" gradientUnits="userSpaceOnUse">
<stop stop-color="#3141E9" stop-opacity="0.5"/>
<stop offset="1" stop-color="#3141E9" stop-opacity="0.3"/>
</linearGradient>
</defs>
</svg>
