<svg width="1920" height="214" viewBox="0 0 1920 214" fill="none" xmlns="http://www.w3.org/2000/svg">
<path d="M1720.55 49.9389C1629.56 49.9389 1510.48 18.5602 1426.87 18.5602C1343.26 18.5602 1351.44 46.4149 1240.4 23.2655C1148.57 4.12156 1036.43 147.361 959.995 77.3023C910.08 31.5494 845.32 111.798 754.335 111.798C663.35 111.798 550.48 18.5602 466.87 18.5602C383.26 18.5602 378.765 79.4118 280.4 23.2655C182.035 -32.8808 157.29 26.591 128.31 55.359C96.57 86.8718 27.04 102.502 0 75.5949V214H1920V75.5949C1884.87 46.2313 1811.53 49.9439 1720.55 49.9439V49.9389Z" fill="url(#paint0_linear_1267_7899)"/>
<defs>
<linearGradient id="paint0_linear_1267_7899" x1="960" y1="0" x2="960" y2="213.752" gradientUnits="userSpaceOnUse">
<stop stop-color="#31D4E9" stop-opacity="0.5"/>
<stop offset="1" stop-color="#31D4E9" stop-opacity="0.3"/>
</linearGradient>
</defs>
</svg>
