<svg width="1920" height="214" viewBox="0 0 1920 214" fill="none" xmlns="http://www.w3.org/2000/svg">
<path d="M1720.55 49.9389C1629.56 49.9389 1510.48 18.5602 1426.87 18.5602C1343.26 18.5602 1351.44 46.4149 1240.4 23.2655C1148.57 4.12156 1036.43 147.361 959.995 77.3023C910.08 31.5494 845.32 111.798 754.335 111.798C663.35 111.798 550.48 18.5602 466.87 18.5602C383.26 18.5602 378.765 79.4118 280.4 23.2655C182.035 -32.8808 157.29 26.591 128.31 55.359C96.57 86.8718 27.04 102.502 0 75.5949V214H1920V75.5949C1884.87 46.2313 1811.53 49.9439 1720.55 49.9439V49.9389Z" fill="url(#paint0_linear_1278_7688)"/>
<path d="M1791.69 67.0329C1762.71 38.1536 1689.42 13.0163 1591.06 69.3747C1492.7 125.733 1383.68 54.671 1300.07 54.671C1216.46 54.671 1199.26 22 1108.27 22C1017.29 22 990.895 51.8957 960 87.347C929.105 122.798 863.425 98.6675 831.685 67.0329C802.705 38.1536 729.42 13.0163 631.06 69.3747C532.7 125.733 423.685 54.671 340.075 54.671C256.465 54.671 239.255 22 148.27 22C57.285 22 35.13 57.8698 0 87.347V214H1920V87.347C1892.96 114.358 1823.43 98.6675 1791.69 67.0329Z" fill="url(#paint1_linear_1278_7688)"/>
<defs>
<linearGradient id="paint0_linear_1278_7688" x1="960" y1="0" x2="960" y2="213.752" gradientUnits="userSpaceOnUse">
<stop stop-color="#31D4E9" stop-opacity="0.5"/>
<stop offset="1" stop-color="#31D4E9" stop-opacity="0.3"/>
</linearGradient>
<linearGradient id="paint1_linear_1278_7688" x1="960" y1="22" x2="960" y2="106.204" gradientUnits="userSpaceOnUse">
<stop stop-color="#3141E9" stop-opacity="0.5"/>
<stop offset="1" stop-color="#3141E9" stop-opacity="0.3"/>
</linearGradient>
</defs>
</svg>
