<svg width="736" height="922" viewBox="0 0 736 922" fill="none" xmlns="http://www.w3.org/2000/svg">
<path d="M560.954 549.533C568.879 541.266 570.782 528.038 566.026 514.48L384.053 0.585938L293.067 95.4943C285.141 103.762 283.239 116.989 287.677 130.217L410.683 481.411L468.382 646.095L528.934 582.933L560.637 549.864L560.954 549.533Z" fill="white" fill-opacity="0.3"/>
<path d="M106.013 513.495L207.144 552.186L146.909 380.227L61.9464 347.819C56.874 345.835 51.8015 346.496 48.6313 349.803L12.8073 387.171L48.3143 350.134L106.013 512.834L106.013 513.495Z" fill="white" fill-opacity="0.15"/>
<path d="M468.705 645.757L411.007 481.073L311.778 443.043L372.964 615.994L455.073 647.41C460.146 649.394 465.218 648.733 468.388 645.426" fill="white" fill-opacity="0.15"/>
<path d="M216.668 175.188L125.681 270.096C117.756 278.363 115.853 291.591 120.292 304.818L146.605 380.547L206.84 552.506L243.615 657.666L300.68 820.366L360.281 758.196L392.934 724.135C400.86 715.867 402.762 702.64 398.007 689.081L372.011 616.329L310.824 443.378L216.668 175.188Z" fill="white" fill-opacity="0.3"/>
<path d="M143.749 619.639L204.935 792.591L286.727 824.337C291.8 826.321 296.872 825.66 300.042 822.353L301.31 821.03L244.246 658.33L143.432 619.97L143.749 619.639Z" fill="white" fill-opacity="0.15"/>
<path d="M-94.3388 528.706C-107.02 524.077 -119.701 526.061 -127.626 534.328L-218.613 629.237L39.1292 728.775L-21.1058 556.815L-94.0217 529.037L-94.3388 528.706Z" fill="white" fill-opacity="0.15"/>
<path d="M-261.409 702.975C-274.09 698.345 -286.771 700.33 -294.697 708.597L-385.683 803.505L119.339 998.282C124.411 1000.27 129.484 999.605 132.654 996.298L74.9554 831.614L-261.409 702.975Z" fill="white" fill-opacity="0.15"/>
<path d="M106.024 513.484L48.6421 350.453L13.1352 387.491L-42.3444 445.361C-49.319 452.637 -51.8552 468.51 -47.7339 480.084L-21.1037 556.143L39.1313 728.102L75.2723 831.278L132.971 995.962L193.523 932.8L225.226 899.731C232.2 892.456 234.736 876.582 230.298 864.678L204.619 792.256L143.433 619.305L106.024 513.484Z" fill="white" fill-opacity="0.3"/>
</svg>
