<svg width="400" height="66" viewBox="0 0 400 66" fill="none" xmlns="http://www.w3.org/2000/svg">
<path d="M344.148 37.6328V65.5062H346.231C347.115 65.5062 347.563 64.9113 347.563 63.3543V37.6328H344.148Z" fill="#B2A9AB"/>
<path d="M326.422 56.6231C332.223 52.9396 335.904 47.3003 335.904 42.0472H326.934V39.1484H338.145C339.596 39.1484 339.653 40.2307 339.653 41.0725C339.653 49.7434 333.562 56.6674 328.43 59.4459L326.422 56.6231Z" fill="#B2A9AB"/>
<path d="M373.412 48.9985H350.498V51.777H361.557V53.9479H354.102V56.6567H369.044V57.5808C369.044 58.1188 368.874 58.258 368.533 58.258H354.102V62.4605C354.102 63.5618 354.399 64.3086 354.999 64.7137C355.592 65.1188 356.463 65.315 357.587 65.315H370.931C371.866 65.315 372.263 64.9732 372.263 64.2897V62.6124H358.123C357.694 62.6188 357.492 62.3973 357.492 61.9542V60.8086H369.587C370.452 60.8086 371.569 60.5175 372.093 59.5618C372.453 58.9036 372.44 57.758 372.44 57.0238V55.3719C372.44 54.4162 371.967 53.9416 371.013 53.9416H364.985V51.7707H373.879C374.864 51.7707 375.287 51.4099 375.287 50.6884V48.9922H373.406L373.412 48.9985Z" fill="#B2A9AB"/>
<path d="M365.023 37.924V37.6328H361.507V37.924C361.507 42.1391 356.343 43.9683 352.903 44.6834L353.938 47.424C356.709 46.9936 361.052 45.9366 363.262 42.348C365.471 45.9303 369.814 46.9936 372.585 47.424L373.62 44.6834C370.174 43.9746 365.017 42.1391 365.017 37.924H365.023Z" fill="#B2A9AB"/>
<path d="M294.532 47.3227V37.6328H291.111V65.5062H293.2C294.084 65.5062 294.532 64.9113 294.532 63.3543V50.3037H296.672C297.726 50.3037 298.187 49.9113 298.187 49.1391V47.3227H294.532Z" fill="#B2A9AB"/>
<path d="M283.599 53.9649H286.604C287.664 50.351 287.923 45.832 287.923 41.0725C287.923 40.2307 287.872 39.1484 286.42 39.1484H273.531V42.0472H284.464C284.464 44.832 284.577 49.775 283.593 53.9649H283.599Z" fill="#B2A9AB"/>
<path d="M280.563 57.172V49.5391H277.204V57.172H272.615V60.0074H287.803C288.813 60.0074 289.249 59.6403 289.249 58.8998V57.1656H280.563V57.172Z" fill="#B2A9AB"/>
<path d="M191.241 49.4141H191.191V52.2875H201.796V55.8128H194.341V58.6799H209.099V65.5153H211.163C212.041 65.5153 212.483 64.933 212.483 63.3951V57.2558C212.476 56.2938 211.99 55.8191 211.05 55.8191H205.223V52.2938H213.985C214.989 52.2938 215.424 51.9204 215.424 51.1925V49.4204H191.235L191.241 49.4141Z" fill="#B2A9AB"/>
<path d="M208.594 47.984H211.763C212.388 46.8004 212.748 42.889 212.748 40.946C212.748 40.1042 212.697 39.0156 211.245 39.0156H194.379V41.9144H209.213C209.213 43.6042 208.954 46.408 208.594 47.984Z" fill="#B2A9AB"/>
<path d="M226.541 41.1328V37.6328H223.145V41.1328H218.537V43.9683H229.754C230.814 43.9683 231.275 43.5758 231.275 42.8037V41.1328H226.541Z" fill="#B2A9AB"/>
<path d="M238.844 37.6328V46.3923H236.458V37.6328H233.156V65.5062H235.119C236.003 65.5062 236.458 64.9113 236.458 63.3543V49.2214H238.844V65.5062H240.807C241.697 65.5062 242.145 64.9113 242.145 63.3543V37.6328H238.844Z" fill="#B2A9AB"/>
<path d="M224.925 45.3828C221.756 45.3828 219.187 48.2183 219.187 52.2309C219.187 56.2436 221.756 59.0727 224.925 59.0727C228.094 59.0727 230.663 56.2309 230.663 52.2309C230.663 48.2309 228.094 45.3828 224.925 45.3828ZM224.925 56.079C223.479 56.079 222.299 54.4714 222.299 52.1866C222.299 49.9018 223.479 48.2942 224.925 48.2942C226.37 48.2942 227.551 49.9018 227.551 52.1866C227.551 54.4714 226.377 56.079 224.925 56.079Z" fill="#B2A9AB"/>
<path d="M269.074 43.4064C270.128 43.4064 270.589 43.0204 270.589 42.2482V40.5837H266.637V37.6406H263.216V53.9697H265.305C266.189 53.9697 266.637 53.3748 266.637 51.8115V48.8748H269.074C270.128 48.8748 270.589 48.4824 270.589 47.7102V46.0394H266.637V43.4064H269.074Z" fill="#B2A9AB"/>
<path d="M257.926 53.8438C252.706 53.8438 249.379 56.5653 249.379 59.9197C249.379 63.2741 252.706 65.9956 257.926 65.9956C263.147 65.9956 266.467 63.2741 266.467 59.9197C266.467 56.5653 263.14 53.8438 257.926 53.8438ZM257.92 63.1855C254.783 63.1855 252.8 61.7488 252.8 59.926C252.8 58.1032 254.783 56.6602 257.92 56.6602C261.057 56.6602 263.046 58.0969 263.046 59.926C263.046 61.7551 261.07 63.1855 257.92 63.1855Z" fill="#B2A9AB"/>
<path d="M259.832 45.1912C259.832 41.3747 256.885 38.2734 252.744 38.2734C248.603 38.2734 245.648 41.3747 245.648 45.1912C245.648 49.0076 248.59 52.1089 252.744 52.1089C256.897 52.1089 259.832 49.0076 259.832 45.1912ZM249.057 45.1975C249.057 42.9 250.56 41.0899 252.737 41.0899C254.915 41.0899 256.417 42.9 256.417 45.1975C256.417 47.495 254.915 49.2988 252.737 49.2988C250.56 49.2988 249.057 47.495 249.057 45.1975Z" fill="#B2A9AB"/>
<path d="M396.029 37.6328V53.9809H391.529V56.7784H396.029V58.348H398.119C399.002 58.348 399.451 57.7531 399.451 56.1961V37.6328H396.029Z" fill="#B2A9AB"/>
<path d="M377.414 49.8891V52.6613H384.112V56.5347H386.195C387.078 56.5347 387.533 55.9778 387.533 54.8828V52.6613H392.955C393.946 52.6613 394.369 52.3005 394.369 51.579V49.8828H377.42L377.414 49.8891Z" fill="#B2A9AB"/>
<path d="M386.056 62.2491C385.431 62.2491 385.115 61.9516 385.115 61.3504V57.9453H381.719V62.2491C381.719 63.3061 382.003 64.0402 382.565 64.4706C383.127 64.8947 383.979 65.0972 385.109 65.0972H398.58C399.564 65.0972 399.994 64.7364 399.994 64.0149V62.2428H386.05L386.056 62.2491Z" fill="#B2A9AB"/>
<path d="M385.772 37.5078C381.738 37.5078 378.885 40.0078 378.885 43.0901C378.885 46.1724 381.738 48.666 385.772 48.666C389.805 48.666 392.652 46.166 392.652 43.0901C392.652 40.0141 389.793 37.5078 385.772 37.5078ZM385.81 45.8812C383.714 45.8812 382.243 44.6281 382.243 43.0901C382.243 41.5521 383.714 40.299 385.81 40.299C387.905 40.299 389.37 41.5458 389.37 43.0901C389.37 44.6344 387.905 45.8812 385.81 45.8812Z" fill="#B2A9AB"/>
<path d="M319.416 55.311H303.887V58.1654H317.471V65.5072H319.535C320.4 65.5072 320.836 64.9313 320.836 63.406V56.7287C320.836 55.773 320.356 55.3047 319.416 55.3047V55.311Z" fill="#B2A9AB"/>
<path d="M320.836 43.6581V37.6328H317.414V53.9619H319.504C320.387 53.9619 320.836 53.367 320.836 51.8037V46.4936H322.187C323.19 46.4936 323.632 46.1202 323.632 45.386V43.6581H320.836Z" fill="#B2A9AB"/>
<path d="M307.662 41.25C303.9 41.25 301.223 43.9399 301.223 47.2563C301.223 50.5728 303.9 53.2627 307.662 53.2627C311.424 53.2627 314.107 50.5728 314.107 47.2563C314.107 43.9399 311.437 41.25 307.662 41.25ZM307.7 50.3449C305.743 50.3449 304.367 48.9399 304.367 47.2057C304.367 45.4715 305.737 44.0665 307.7 44.0665C309.663 44.0665 311.033 45.4715 311.033 47.2057C311.033 48.9399 309.663 50.3449 307.7 50.3449Z" fill="#B2A9AB"/>
<path d="M313.69 42.6406C314.751 42.6406 315.211 42.2672 315.211 41.533V39.9571H309.391V37.6406H305.989V39.9571H300.415V42.647H313.69V42.6406Z" fill="#B2A9AB"/>
<path d="M186.154 44.2657V37.6328H182.732V57.6961H184.822C185.706 57.6961 186.154 57.1012 186.154 55.5442V47.1012H188.534C189.588 47.1012 190.049 46.7151 190.049 45.9366V44.2657H186.154Z" fill="#B2A9AB"/>
<path d="M172.942 62.2451C172.323 62.2451 172.001 61.9476 172.001 61.3463V56.8906H168.605V62.2451C168.605 63.302 168.889 64.0362 169.451 64.4666C170.013 64.8906 170.865 65.0932 171.995 65.0932H185.466C186.45 65.0932 186.88 64.7324 186.88 64.0109V62.2387H172.936L172.942 62.2451Z" fill="#B2A9AB"/>
<path d="M172.557 41.4297C168.788 41.4297 166.118 44.2525 166.118 47.7335C166.118 51.2145 168.788 54.0373 172.557 54.0373C176.325 54.0373 178.989 51.2145 178.989 47.7335C178.989 44.2525 176.325 41.4297 172.557 41.4297ZM172.557 51.1449C170.625 51.1449 169.274 49.4993 169.274 47.4613C169.274 45.4234 170.625 43.7778 172.557 43.7778C174.488 43.7778 175.839 45.4234 175.839 47.4613C175.839 49.4993 174.488 51.1449 172.557 51.1449Z" fill="#B2A9AB"/>
<path d="M178.585 42.8986C179.646 42.8986 180.106 42.5062 180.106 41.7341V40.0822H174.286V37.6328H170.884V40.0822H165.31V42.905H178.579L178.585 42.8986Z" fill="#B2A9AB"/>
<path d="M114.64 37.625H79.0191C76.0649 37.625 71.5452 38.2579 69.2538 41.6756C66.7667 45.3908 68.1175 50.3402 74.5436 52.3149C74.5436 52.3149 79.9723 53.9541 82.1122 54.7959C83.6461 55.4098 84.5488 56.4984 83.987 58.1883C83.3368 60.1503 80.1995 60.0997 77.9523 60.0997H74.5562C70.2448 60.0997 67.36 64.1693 67.4168 65.2769C67.4358 65.568 67.6062 65.5237 67.8461 65.5237H79.158C83.0591 65.5237 88.4814 65.2073 90.4257 61.3845C92.0416 58.2073 91.7323 53.8845 84.1069 51.5111C80.9949 50.5364 79.2527 49.8972 77.1127 49.106C75.3074 48.4478 74.4678 47.125 74.8276 45.8908C75.5473 43.3528 79.3663 43.1566 80.8434 43.1566H96.5677V65.106C96.5677 65.3845 96.7507 65.5301 97.0032 65.5301H102.179C102.836 65.5301 103.297 65.0744 103.297 64.4035V43.1566C103.524 43.1566 109.218 43.1566 109.262 43.1566C112.772 43.1566 115.158 39.2389 115.082 37.8908C115.069 37.587 114.893 37.6313 114.646 37.6313L114.64 37.625Z" fill="#B2A9AB"/>
<path d="M34.6237 37.6235H30.0787C29.4475 37.6488 29.0183 38.0855 29.0183 38.7311V62.0349C29.0183 63.3071 28.6837 63.8071 26.1714 62.9526C23.3055 61.9716 14.0136 56.826 11.3119 50.2374C14.9163 45.5982 19.3665 42.6172 25.0414 39.6045C27.2382 38.4336 26.6006 37.6362 25.7484 37.6362H19.7516C18.5017 37.6362 17.3403 37.6109 15.9452 38.4526C12.7637 40.383 8.26298 45.5159 6.67224 48.6742V38.7374C6.67224 38.0792 6.22406 37.6235 5.56125 37.6235H1.1173C0.460808 37.6235 0 38.0792 0 38.7374V64.4147C0 65.0792 0.454495 65.5286 1.1173 65.5286H5.56125C6.22406 65.5286 6.67224 65.0792 6.67224 64.4147V52.4906C7.39817 54.421 8.81847 57.0033 10.567 59.459C14.3103 64.7058 18.3187 65.5222 21.8726 65.5222H32.9509C35.3244 65.5222 35.6842 64.1868 35.6842 62.0349V38.7248C35.6842 38.0855 35.2549 37.6425 34.6174 37.6172L34.6237 37.6235Z" fill="#B2A9AB"/>
<path d="M150.337 47.6289C145.546 33.6732 129.411 38.7998 119.501 27.7429C114.533 22.1922 112.923 17.9264 112.405 15.8631C112.235 15.1606 112.147 15.496 112.166 15.977C112.336 19.6289 113.75 24.6669 116.49 29.9137C117.247 31.3315 117.777 32.7239 118.219 34.0973C120.782 42.1922 120.182 50.6099 117.039 57.4391C121.262 52.5277 123.566 46.2492 125.011 41.6606C131.829 48.6289 141.468 54.2239 154.169 55.0656C152.458 53.9707 151.277 50.3251 150.343 47.6289H150.337Z" fill="#B2A9AB"/>
<path d="M140.748 1.27451C140.149 2.86312 139.675 4.23021 137.516 6.62261C133.811 10.7049 129.714 12.7619 126.198 17.8251C123.137 22.2239 123.49 27.072 123.496 28.4581C123.711 27.0973 123.604 22.9138 126.905 18.053C128.426 15.8378 130.737 13.5846 132.713 11.8188C135.465 9.35046 136.639 8.23021 138.204 6.40742C138.671 5.86312 139.378 4.92008 139.669 4.36945C139.549 4.7492 139.12 5.50236 138.697 6.14793C137.093 8.55299 135.944 9.82514 133.369 12.477C131.324 14.5846 129.215 16.7619 127.89 18.6859C126.4 20.8378 124.683 23.7808 124.046 28.9644C124.734 25.9517 126.021 22.3125 128.515 19.0277C129.79 17.3441 132.075 14.8315 133.71 13.0783C136.26 10.3631 138.286 7.78084 139.404 5.6416C140.085 4.34413 140.42 3.24287 140.42 3.24287C140.42 3.24287 140.205 4.2935 139.738 5.41375C138.848 7.50869 137.049 10.4581 134.265 13.9074C132.694 15.8441 131.115 17.7619 129.537 19.6859C127.599 22.0467 125.403 26.2555 124.588 29.4644C124.803 28.9897 126.413 24.4201 130.068 20.1353C131.696 18.2302 133.407 16.1669 134.77 14.4138C137.371 11.0657 139.132 8.16692 140.104 5.36312C140.685 3.70489 140.805 2.45806 140.805 2.45806C140.805 2.45806 140.742 3.89476 140.294 5.36312C139.694 7.33147 138.829 10.4011 135.383 15.3251C134.265 16.9264 132.757 18.7619 131.115 20.7555C128.231 24.2619 125.946 28.1986 125.125 29.8758C125.927 28.6922 128.18 25.1859 131.671 21.1479C132.915 19.7176 134.562 17.7429 135.831 15.9201C138.779 11.6732 140.003 8.14793 140.578 5.60995C140.862 4.37578 140.9 4.12261 141.013 3.52135C141.013 4.1859 140.912 4.87578 140.792 5.7935C140.205 10.3125 137.876 15.2935 136.058 17.6732C131.128 24.1289 128.818 26.3188 125.788 30.2239C128.565 27.2492 133.861 22.4201 137.27 17.2302C138.993 14.6226 140.426 10.7049 140.982 6.6416C141.121 5.65426 141.171 5.47071 141.234 4.39476C141.272 5.23654 141.278 6.36945 141.14 7.69856C140.824 10.6922 140.117 14.477 138.337 17.8378C136.961 20.4517 133.552 24.6163 126.539 30.5087C130.105 27.8125 135.787 23.8884 138.804 18.4201C140.445 15.4517 141.152 11.8694 141.367 9.31882C141.474 8.06565 141.575 5.70489 141.575 5.70489C141.733 7.12261 141.752 9.03401 141.72 10.7935C141.664 13.9264 141.007 16.8568 139.814 19.1036C138.564 21.4581 135.364 26.0846 127.259 30.7935C136.342 26.072 139.214 22.1416 140.59 19.3821C141.619 17.3188 142.244 14.5846 142.288 11.2239C142.345 6.66059 141.417 1.98337 141.234 1.36945C141.133 1.01502 140.944 0.768182 140.748 1.26185V1.27451Z" fill="#B2A9AB"/>
<path d="M38.4869 48.4429C38.0892 50.8164 38.5059 53.4493 39.579 55.31C41.2959 58.2974 44.6731 60.4746 48.6057 60.4746C49.2938 60.4746 50.045 60.4366 50.632 60.2531C51.5537 59.9556 51.5789 59.4936 50.8656 59.3543C47.3811 58.6645 43.5242 55.2974 44.5532 49.6581C45.2412 45.8543 48.7067 42.9746 52.6331 42.9303V36.6328C45.5947 36.6328 39.6421 41.5948 38.4869 48.4429Z" fill="#B2A9AB"/>
<path d="M55.6505 36.9351C54.6594 36.7326 53.6494 36.625 52.6395 36.625C52.5637 36.625 52.488 36.625 52.4122 36.625V42.9288C52.5195 42.9288 52.6268 42.9225 52.7341 42.9225C53.2833 42.9225 53.8262 42.9794 54.3691 43.0934C58.9266 44.0554 61.6347 48.125 60.9592 52.9858C60.7762 54.2706 60.2649 55.7642 59.6273 56.9478C57.0771 61.644 51.6737 63.7136 44.0546 61.4161C42.7289 61.0237 43.2781 61.8402 43.922 62.5047C44.4649 63.0617 46.1566 64.6503 49.3128 65.4035C50.2723 65.6313 51.6863 65.8022 52.6773 65.8022C59.5263 65.8022 65.5105 60.9288 66.8992 54.2263C68.5405 46.3339 63.4968 38.5744 55.6568 36.9351H55.6505Z" fill="#B2A9AB"/>
</svg>
