<svg width="219" height="73" viewBox="0 0 219 73" fill="none" xmlns="http://www.w3.org/2000/svg">
<path d="M89.9503 16.7048C90.1156 16.2337 90.4463 15.3043 90.6879 14.6295C90.4081 14.604 90.1029 14.5658 89.9503 14.5404V16.7048ZM86.9744 13.9929L88.1699 17.074V14.1457C87.8011 14.0438 87.2288 14.0056 86.9617 13.9929H86.9744ZM96.8431 9.7913C97.0721 9.00191 97.0085 8.31438 96.6524 7.71597C96.0038 6.64648 94.6558 6.31544 94.2615 6.22632C93.5748 6.08626 92.8626 6.0226 92.125 6.0226C91.3874 6.0226 90.6879 6.08626 89.8867 6.20085L89.9503 12.4396C90.0902 12.4014 90.3191 12.3886 90.5862 12.3886C90.7134 12.3886 91.54 12.4014 91.54 12.4014L92.7227 8.31438L95.4951 8.26345L94.2615 12.0194C95.9656 11.421 96.7033 10.3006 96.8559 9.77857L96.8431 9.7913ZM91.1839 21.5685C93.7782 21.2374 94.465 20.9701 94.4014 19.8114C94.3633 19.1876 93.6892 18.7674 92.7227 18.7674C92.5192 18.7674 92.303 18.7801 92.0741 18.8183L91.1712 21.5557L91.1839 21.5685ZM82.4979 5.61518H83.0193C83.1465 5.61518 83.2482 5.57698 83.3245 5.55152C83.4136 5.52605 83.4644 5.47512 83.4644 5.44966C83.439 5.3478 83.2482 5.29688 83.0575 5.29688C82.8413 5.29688 82.6378 5.39873 82.3707 5.61518C82.3962 5.61518 82.447 5.60244 82.4979 5.60244V5.61518ZM86.5548 25.7573C86.5548 25.9992 86.6056 27.1833 88.3606 27.4634L88.3352 25.8846L87.7629 24.2549C87.2034 24.5223 86.5802 24.9807 86.5548 25.7573ZM84.202 14.0438C83.7188 14.1711 83.2991 14.2857 82.7777 14.6168C82.3071 14.9096 82.0146 15.4825 82.0146 16.1319C82.0146 16.8067 82.3071 17.4051 82.8286 17.7488C83.2991 18.0544 84.1512 18.3727 84.9651 18.3727C85.2449 18.3727 85.4992 18.3345 85.7408 18.2709L84.2656 14.0438H84.2148H84.202Z" fill="#B2A9AB"/>
<path d="M180.307 0.0381962H168.9L155.61 34.3002V0.0381962H143.376L132.248 17.2265L121.311 0.0381962H90.9166C90.9802 0.165517 91.0184 0.292838 91.0184 0.420158C91.0311 1.13315 90.2935 1.42599 89.8993 1.47692L89.9628 3.93421C90.3698 3.90875 90.7768 3.85782 91.1964 3.80689C91.8196 3.7305 92.4554 3.64137 93.1422 3.64137C94.007 3.64137 94.8082 3.78143 95.5839 4.06153C99.7934 5.58938 99.4627 8.84879 99.272 9.81643C98.9668 11.2933 97.1355 13.7761 94.2105 14.4382L93.9307 14.5018C93.7145 14.5528 93.4601 14.6164 93.3584 14.6292L92.837 16.5135C93.0023 16.5135 93.1676 16.5008 93.3329 16.5008C95.7874 16.5008 97.0846 17.914 97.1736 18.8562C97.3644 20.7787 96.7666 23.0832 90.4715 23.7708L89.8357 25.9098V27.4885C90.9929 27.3358 91.5779 26.7374 92.0994 26.2026L92.4682 25.8334C94.1214 24.331 95.7238 23.6689 97.8222 23.6435L97.8476 23.8217C95.7747 24.3565 95.0625 25.0185 93.7781 26.3554C93.6127 26.5336 93.4601 26.7374 93.2821 26.9411C92.6208 27.7941 91.8069 28.8509 89.7212 29.1946L89.7848 30.2132C89.7848 30.366 89.8611 30.5315 89.9374 30.697C90.0391 30.9135 90.1536 31.1299 90.09 31.3718L89.327 34.2111C89.3015 34.3002 89.1998 34.3511 89.0853 34.3511C88.9836 34.3511 88.8691 34.3129 88.8437 34.2111L88.0807 31.3718C88.0171 31.1299 88.1315 30.9135 88.2333 30.697C88.3096 30.5315 88.3986 30.3787 88.3859 30.2132V29.322H88.2078C85.2701 29.3092 83.9984 27.7814 83.7949 26.47C83.3498 23.5671 86.0204 22.383 86.987 22.052L86.3257 20.1676C85.4482 20.4477 84.825 20.5623 84.2273 20.5623C83.6296 20.5623 83.0319 20.4477 82.1798 20.2313C80.7173 19.8493 79.4455 18.627 79.0386 17.1628C78.6952 15.9278 78.9877 14.7437 79.8779 13.827C80.8063 12.8594 82.0145 12.2737 83.566 12.0191L82.2688 8.27585H84.9395L86.2748 12.0191H86.4274C86.9997 12.0191 87.7246 12.0827 88.1697 12.1464V6.28964L87.9281 6.31511C87.6483 6.3533 87.3685 6.37877 87.1396 6.41697C86.1222 6.44243 85.9441 6.58248 85.7788 6.72253C85.5753 6.90078 85.3846 7.0663 84.2273 7.0663C83.5278 7.0663 82.5232 7.00264 81.1624 6.87532C80.7682 6.83712 80.3612 6.55702 80.0941 6.3533C79.7508 6.09866 79.5473 5.74216 79.5727 5.41113C79.5854 5.19469 79.7126 5.01644 79.9161 4.91458C80.4502 4.63447 80.8445 4.41803 81.1497 4.26524C82.1671 3.71777 82.1798 3.71777 82.892 3.61591C83.5533 3.52678 84.062 3.48859 84.4944 3.48859C85.4227 3.48859 85.7915 3.67957 86.1095 3.84509C86.3384 3.95967 86.5291 4.07426 86.9107 4.087H87.2032C87.5338 4.087 87.9153 4.06153 88.2587 4.0106L88.1824 1.37506H88.157C88.0044 1.37506 87.0633 1.01857 87.1396 0.36923C87.1523 0.229177 87.2159 0.114589 87.2795 0H56.5669L45.4392 17.1883L34.4895 0.0381962H22.2427V42.3214H33.8918V17.2902L45.4138 35.5989L56.9485 17.5575V42.3214H68.7884V5.16922L83.0954 42.3214H94.5665L109.064 5.11829V42.3341H120.714V17.2774L132.248 35.5861L143.783 17.5448V42.3214H165.301L168.099 34.0201H180.803L183.474 42.3214H196.598L180.307 0.0381962ZM171.074 24.7639L174.508 14.1581L177.891 24.7639H171.074Z" fill="#B2A9AB"/>
<path d="M2.82324 64.689H3.20476C3.34466 64.689 3.42096 64.6126 3.43368 64.4344L3.92966 57.4062H4.65455L6.54944 62.0407C6.72748 62.4482 6.90553 62.9829 6.90553 62.9829H6.93096C6.93096 62.9829 7.10901 62.4482 7.27433 62.0407L9.16922 57.4062H9.89412L10.3901 64.4344C10.3901 64.5999 10.4664 64.689 10.619 64.689H11.0005V65.3893H10.3138C9.8814 65.3893 9.72879 65.1855 9.69064 64.7017L9.35999 59.8508C9.33455 59.4179 9.33455 58.7431 9.33455 58.7431H9.30912C9.30912 58.7431 9.11836 59.4434 8.94031 59.8508L7.23618 63.8996H6.60031L4.9089 59.8508C4.74357 59.4561 4.52737 58.7177 4.52737 58.7177H4.50194C4.50194 58.7177 4.50194 59.4179 4.4765 59.8508L4.14585 64.7017C4.12042 65.1855 3.96781 65.3893 3.5227 65.3893H2.83596V64.689H2.82324ZM14.7522 61.8752H15.0319V61.8115C15.0319 60.6147 14.6504 60.1946 13.7093 60.1946C13.455 60.1946 12.7047 60.271 12.7047 60.6911V61.0604H12.0434V60.5129C12.0434 59.7235 13.2642 59.5452 13.7093 59.5452C15.3244 59.5452 15.7187 60.5129 15.7187 61.7352V64.4726C15.7187 64.6381 15.795 64.7272 15.9476 64.7272H16.38V65.402H15.6805C15.2481 65.402 15.0701 65.1855 15.0701 64.7272V64.307H15.0447C15.0447 64.307 14.625 65.542 13.3405 65.542C12.4885 65.542 11.5982 64.9818 11.5982 63.8487C11.5982 61.9516 13.8492 61.8879 14.7394 61.8879L14.7522 61.8752ZM13.4677 64.8672C14.4469 64.8672 15.0319 63.7341 15.0319 62.741V62.4736H14.7394C13.9383 62.4736 12.3231 62.4991 12.3231 63.7723C12.3231 64.307 12.7047 64.8545 13.4677 64.8545V64.8672ZM17.2956 64.0015C17.2956 64.0015 17.8679 64.8672 18.8726 64.8672C19.4449 64.8672 19.9536 64.5617 19.9536 63.9633C19.9536 62.7155 17.0794 62.9447 17.0794 61.0985C17.0794 60.0673 17.8679 59.558 18.898 59.558C19.4194 59.558 20.4623 59.7871 20.4623 60.5893V61.0731H19.8137V60.8057C19.8137 60.3856 19.2668 60.2328 18.9235 60.2328C18.2113 60.2328 17.7789 60.5001 17.7789 61.0604C17.7789 62.3463 20.653 62.0535 20.653 63.9378C20.653 64.8927 19.8773 65.542 18.8599 65.542C17.5246 65.542 16.8887 64.5489 16.8887 64.5489L17.2829 64.0142L17.2956 64.0015ZM21.7722 64.0015C21.7722 64.0015 22.3445 64.8672 23.3491 64.8672C23.9214 64.8672 24.4301 64.5617 24.4301 63.9633C24.4301 62.7155 21.556 62.9447 21.556 61.0985C21.556 60.0673 22.3445 59.558 23.3746 59.558C23.896 59.558 24.9388 59.7871 24.9388 60.5893V61.0731H24.2902V60.8057C24.2902 60.3856 23.7434 60.2328 23.4 60.2328C22.6878 60.2328 22.2554 60.5001 22.2554 61.0604C22.2554 62.3463 25.1296 62.0535 25.1296 63.9378C25.1296 64.8927 24.3538 65.542 23.3364 65.542C22.0011 65.542 21.3652 64.5489 21.3652 64.5489L21.7595 64.0142L21.7722 64.0015ZM29.1101 61.8752H29.3899V61.8115C29.3899 60.6147 29.0084 60.1946 28.0673 60.1946C27.8129 60.1946 27.0626 60.271 27.0626 60.6911V61.0604H26.4013V60.5129C26.4013 59.7235 27.6222 59.5452 28.0673 59.5452C29.6824 59.5452 30.0766 60.5129 30.0766 61.7352V64.4726C30.0766 64.6381 30.1529 64.7272 30.3055 64.7272H30.7379V65.402H30.0385C29.6061 65.402 29.428 65.1855 29.428 64.7272V64.307H29.4026C29.4026 64.307 28.9829 65.542 27.6985 65.542C26.8464 65.542 25.9562 64.9818 25.9562 63.8487C25.9562 61.9516 28.2072 61.8879 29.0974 61.8879L29.1101 61.8752ZM27.8257 64.8672C28.8049 64.8672 29.3899 63.7341 29.3899 62.741V62.4736H29.0974C28.2962 62.4736 26.6811 62.4991 26.6811 63.7723C26.6811 64.307 27.0626 64.8545 27.8257 64.8545V64.8672ZM33.6629 59.558C34.2479 59.558 35.4815 59.8253 35.4815 60.7675V61.2768H34.8329V60.9458C34.8329 60.4747 34.0953 60.2455 33.6629 60.2455C32.5565 60.2455 31.679 61.1622 31.679 62.55C31.679 63.9378 32.6074 64.829 33.6884 64.829C34.7694 64.829 35.3416 64.0269 35.3416 64.0269L35.6723 64.5999C35.6723 64.5999 34.9855 65.5293 33.6629 65.5293C32.1369 65.5293 30.9796 64.3198 30.9796 62.55C30.9796 60.7802 32.1496 59.558 33.6757 59.558H33.6629ZM36.5498 58.3357C36.5498 58.1829 36.4735 58.081 36.3209 58.081H35.8885V57.4062H36.6134C37.0458 57.4062 37.2365 57.61 37.2365 58.081V60.5001C37.2365 60.7675 37.2111 60.9712 37.2111 60.9712H37.2365C37.4273 60.4238 38.114 59.558 39.2586 59.558C40.5303 59.558 40.9754 60.3601 40.9754 61.7734V64.4853C40.9754 64.6508 41.0518 64.7399 41.2044 64.7399H41.6368V65.4147H40.9119C40.4795 65.4147 40.2887 65.211 40.2887 64.7272V61.9898C40.2887 61.0985 40.1615 60.2964 39.1696 60.2964C38.3048 60.2964 37.5545 60.9712 37.3128 61.9134C37.2492 62.1426 37.2365 62.3972 37.2365 62.6773V65.4147H36.5498V58.3612V58.3357ZM42.7304 60.6147C42.7304 60.4619 42.6541 60.3601 42.5015 60.3601H42.0691V59.6853H42.794C43.2264 59.6853 43.4172 59.889 43.4172 60.3601V63.1229C43.4172 64.0142 43.5444 64.8163 44.5363 64.8163C45.6936 64.8163 46.4185 63.6704 46.4185 62.4354V59.698H47.1052V64.4853C47.1052 64.6508 47.1815 64.7399 47.3341 64.7399H47.7665V65.4147H47.0671C46.6347 65.4147 46.4439 65.211 46.4439 64.7781V64.5107C46.4439 64.2816 46.4694 64.1033 46.4694 64.1033H46.4439C46.2404 64.6635 45.5664 65.542 44.4473 65.542C43.2391 65.542 42.7304 64.8163 42.7304 63.3267V60.6147ZM48.7076 64.0015C48.7076 64.0015 49.2799 64.8672 50.2846 64.8672C50.8569 64.8672 51.3656 64.5617 51.3656 63.9633C51.3656 62.7155 48.4914 62.9447 48.4914 61.0985C48.4914 60.0673 49.2799 59.558 50.31 59.558C50.8314 59.558 51.8743 59.7871 51.8743 60.5893V61.0731H51.2257V60.8057C51.2257 60.3856 50.6788 60.2328 50.3355 60.2328C49.6233 60.2328 49.1909 60.5001 49.1909 61.0604C49.1909 62.3463 52.065 62.0535 52.065 63.9378C52.065 64.8927 51.2893 65.542 50.2719 65.542C48.9365 65.542 48.3007 64.5489 48.3007 64.5489L48.6949 64.0142L48.7076 64.0015ZM55.4224 59.558C56.834 59.558 57.5717 60.7675 57.5717 62.1935C57.5717 62.3336 57.5462 62.5755 57.5462 62.5755H53.6165C53.642 64.0142 54.5449 64.8418 55.6005 64.8418C56.5415 64.8418 57.1393 64.1415 57.1393 64.1415L57.4699 64.7145C57.4699 64.7145 56.7323 65.5293 55.5623 65.5293C54.0489 65.5293 52.8789 64.307 52.8789 62.55C52.8789 60.6784 54.0362 59.558 55.4097 59.558H55.4224ZM56.8595 61.9643C56.8213 60.7802 56.1727 60.2073 55.4097 60.2073C54.5703 60.2073 53.82 60.8184 53.642 61.9643H56.8468H56.8595ZM59.0214 60.3346H58.3474V59.6853H59.0341V58.1065H59.7209V59.6853H61.0054V60.3346H59.7209V63.2375C59.7209 64.5744 60.4839 64.7527 60.8782 64.7527C61.0181 64.7527 61.1071 64.7272 61.1071 64.7272V65.4147C61.1071 65.4147 60.9799 65.4402 60.8146 65.4402C60.2296 65.4402 59.0341 65.2237 59.0341 63.3139V60.3346H59.0214ZM62.4424 60.3346H61.7684V59.6853H62.4551V58.1065H63.1419V59.6853H64.4263V60.3346H63.1419V63.2375C63.1419 64.5744 63.9049 64.7527 64.2992 64.7527C64.439 64.7527 64.5281 64.7272 64.5281 64.7272V65.4147C64.5281 65.4147 64.4009 65.4402 64.2356 65.4402C63.6506 65.4402 62.4551 65.2237 62.4551 63.3139V60.3346H62.4424ZM65.5963 64.0015C65.5963 64.0015 66.1686 64.8672 67.1733 64.8672C67.7456 64.8672 68.2543 64.5617 68.2543 63.9633C68.2543 62.7155 65.3801 62.9447 65.3801 61.0985C65.3801 60.0673 66.1686 59.558 67.1987 59.558C67.7201 59.558 68.763 59.7871 68.763 60.5893V61.0731H68.1144V60.8057C68.1144 60.3856 67.5675 60.2328 67.2242 60.2328C66.512 60.2328 66.0796 60.5001 66.0796 61.0604C66.0796 62.3463 68.9537 62.0535 68.9537 63.9378C68.9537 64.8927 68.178 65.542 67.1606 65.542C65.8252 65.542 65.1894 64.5489 65.1894 64.5489L65.5836 64.0142L65.5963 64.0015ZM72.9343 58.3739C72.858 58.1574 72.7562 58.1192 72.5655 58.1192H72.4637V57.419H72.7817C73.2904 57.419 73.443 57.5336 73.621 58.081L75.3887 63.4413C75.5159 63.8487 75.6685 64.4726 75.6685 64.4726H75.6939C75.6939 64.4726 75.8338 63.8487 75.9737 63.4413L77.7415 58.081C77.9195 57.5208 78.0721 57.419 78.5808 57.419H78.886V58.1192H78.797C78.6062 58.1192 78.5045 58.1574 78.4282 58.3739L76.0755 65.402H75.3124L72.9597 58.3739H72.9343ZM80.9844 59.558C82.396 59.558 83.1336 60.7675 83.1336 62.1935C83.1336 62.3336 83.1082 62.5755 83.1082 62.5755H79.1785C79.2039 64.0142 80.1069 64.8418 81.1624 64.8418C82.1035 64.8418 82.7012 64.1415 82.7012 64.1415L83.0319 64.7145C83.0319 64.7145 82.2943 65.5293 81.1243 65.5293C79.6109 65.5293 78.4409 64.307 78.4409 62.55C78.4409 60.6784 79.5982 59.558 80.9717 59.558H80.9844ZM82.4214 61.9643C82.3833 60.7802 81.7347 60.2073 80.9717 60.2073C80.1323 60.2073 79.382 60.8184 79.2039 61.9643H82.4087H82.4214ZM84.5707 60.3346H83.8967V59.6853H84.5834V58.1065H85.2702V59.6853H86.5546V60.3346H85.2702V63.2375C85.2702 64.5744 86.0332 64.7527 86.4274 64.7527C86.5673 64.7527 86.6563 64.7272 86.6563 64.7272V65.4147C86.6563 65.4147 86.5292 65.4402 86.3639 65.4402C85.7789 65.4402 84.5834 65.2237 84.5834 63.3139V60.3346H84.5707ZM89.8738 59.558C91.2855 59.558 92.0231 60.7675 92.0231 62.1935C92.0231 62.3336 91.9977 62.5755 91.9977 62.5755H88.068C88.0934 64.0142 88.9963 64.8418 90.0519 64.8418C90.993 64.8418 91.5907 64.1415 91.5907 64.1415L91.9213 64.7145C91.9213 64.7145 91.1837 65.5293 90.0137 65.5293C88.5004 65.5293 87.3304 64.307 87.3304 62.55C87.3304 60.6784 88.4877 59.558 89.8611 59.558H89.8738ZM91.3109 61.9643C91.2728 60.7802 90.6242 60.2073 89.8611 60.2073C89.0218 60.2073 88.2715 60.8184 88.0934 61.9643H91.2982H91.3109ZM93.4093 60.6147C93.4093 60.4619 93.333 60.3601 93.1804 60.3601H92.748V59.6853H93.4602C93.8925 59.6853 94.0833 59.8763 94.0833 60.3346V60.7166C94.0833 60.9585 94.0579 61.1495 94.0579 61.1495H94.0833C94.3249 60.2837 94.8972 59.6344 95.6984 59.6344C95.8383 59.6344 95.9782 59.6726 95.9782 59.6726V60.4365C95.9782 60.4365 95.851 60.411 95.7238 60.411C94.999 60.411 94.4648 61.0476 94.2359 61.8879C94.1342 62.2572 94.096 62.6391 94.096 62.9956V65.402H93.4093V60.6147ZM97.1482 60.6147C97.1482 60.4619 97.0719 60.3601 96.9193 60.3601H96.4869V59.6853H97.2118C97.6442 59.6853 97.8349 59.889 97.8349 60.3728V64.4726C97.8349 64.6381 97.9112 64.7272 98.0639 64.7272H98.4962V65.402H97.7714C97.339 65.402 97.1482 65.1983 97.1482 64.7145V60.6147ZM97.1228 57.4317H97.7968V58.4121H97.1228V57.4317ZM99.6663 60.6147C99.6663 60.4619 99.5899 60.3601 99.4373 60.3601H99.0049V59.6853H99.7171C100.15 59.6853 100.34 59.889 100.34 60.3219V60.5893C100.34 60.8184 100.315 60.9967 100.315 60.9967H100.34C100.518 60.4747 101.18 59.558 102.375 59.558C103.647 59.558 104.092 60.3601 104.092 61.7734V64.4853C104.092 64.6508 104.168 64.7399 104.321 64.7399H104.753V65.4147H104.028C103.583 65.4147 103.405 65.211 103.405 64.7272V61.9898C103.405 61.0985 103.278 60.2964 102.299 60.2964C101.421 60.2964 100.671 60.9712 100.429 61.9134C100.366 62.1553 100.353 62.41 100.353 62.6901V65.4275H99.6663V60.6402V60.6147ZM108.518 61.8752H108.797V61.8115C108.797 60.6147 108.416 60.1946 107.475 60.1946C107.22 60.1946 106.47 60.271 106.47 60.6911V61.0604H105.809V60.5129C105.809 59.7235 107.03 59.5452 107.475 59.5452C109.09 59.5452 109.484 60.5129 109.484 61.7352V64.4726C109.484 64.6381 109.56 64.7272 109.713 64.7272H110.145V65.402H109.446C109.001 65.402 108.835 65.1855 108.835 64.7272V64.307H108.81C108.81 64.307 108.39 65.542 107.106 65.542C106.254 65.542 105.364 64.9818 105.364 63.8487C105.364 61.9516 107.615 61.8879 108.505 61.8879L108.518 61.8752ZM107.233 64.8672C108.212 64.8672 108.797 63.7341 108.797 62.741V62.4736H108.505C107.704 62.4736 106.089 62.4991 106.089 63.7723C106.089 64.307 106.47 64.8545 107.233 64.8545V64.8672ZM111.252 60.6147C111.252 60.4619 111.175 60.3601 111.023 60.3601H110.59V59.6853H111.303C111.735 59.6853 111.926 59.8763 111.926 60.3346V60.7166C111.926 60.9585 111.9 61.1495 111.9 61.1495H111.926C112.167 60.2837 112.74 59.6344 113.554 59.6344C113.694 59.6344 113.821 59.6726 113.821 59.6726V60.4365C113.821 60.4365 113.694 60.411 113.566 60.411C112.841 60.411 112.307 61.0476 112.078 61.8879C111.977 62.2572 111.939 62.6391 111.939 62.9956V65.402H111.252V60.6147ZM115.36 67.0826C115.805 67.0826 116.11 66.6752 116.313 66.1532L116.619 65.3765L114.813 60.6275C114.736 60.4238 114.635 60.3601 114.457 60.3601H114.355V59.6853H114.673C115.131 59.6853 115.27 59.7999 115.461 60.3092L116.771 63.8741C116.873 64.1542 116.949 64.4853 116.949 64.4853H116.975C116.975 64.4853 117.051 64.1542 117.153 63.8741L118.412 60.3092C118.59 59.7999 118.742 59.6853 119.2 59.6853H119.518V60.3601H119.416C119.238 60.3601 119.137 60.411 119.06 60.6275L116.847 66.5988C116.58 67.3245 116.059 67.7956 115.385 67.7956C114.711 67.7956 114.279 67.2354 114.279 67.2354L114.609 66.6625C114.609 66.6625 114.94 67.0954 115.372 67.0954L115.36 67.0826ZM123.282 64.689H123.664C123.804 64.689 123.88 64.6126 123.893 64.4344L124.389 57.4062H125.114L127.009 62.0407C127.174 62.4482 127.365 62.9829 127.365 62.9829H127.39C127.39 62.9829 127.568 62.4482 127.734 62.0407L129.628 57.4062H130.353L130.849 64.4344C130.849 64.5999 130.926 64.689 131.078 64.689H131.46V65.3893H130.773C130.341 65.3893 130.188 65.1855 130.15 64.7017L129.806 59.8508C129.781 59.4179 129.781 58.7431 129.781 58.7431H129.756C129.756 58.7431 129.565 59.4434 129.387 59.8508L127.683 63.8996H127.047L125.355 59.8508C125.19 59.4561 124.974 58.7177 124.974 58.7177H124.948C124.948 58.7177 124.948 59.4179 124.923 59.8508L124.58 64.7017C124.554 65.1855 124.402 65.3893 123.956 65.3893H123.27V64.689H123.282ZM134.601 59.558C136.025 59.558 136.75 60.7675 136.75 62.1935C136.75 62.3336 136.725 62.5755 136.725 62.5755H132.795C132.821 64.0142 133.723 64.8418 134.779 64.8418C135.72 64.8418 136.318 64.1415 136.318 64.1415L136.648 64.7145C136.648 64.7145 135.911 65.5293 134.741 65.5293C133.227 65.5293 132.057 64.307 132.057 62.55C132.057 60.6784 133.215 59.558 134.588 59.558H134.601ZM136.038 61.9643C136 60.7802 135.351 60.2073 134.588 60.2073C133.749 60.2073 132.999 60.8184 132.833 61.9643H136.038ZM139.993 59.558C141.239 59.558 141.659 60.6275 141.659 60.6275H141.685C141.685 60.6275 141.659 60.4365 141.659 60.1946V58.3484C141.659 58.1956 141.583 58.0938 141.43 58.0938H140.998V57.419H141.723C142.168 57.419 142.346 57.6227 142.346 58.1065V64.4726C142.346 64.6381 142.422 64.7272 142.575 64.7272H143.007V65.402H142.295C141.863 65.402 141.685 65.1855 141.685 64.7654C141.685 64.5489 141.71 64.3962 141.71 64.3962H141.685C141.685 64.3962 141.265 65.5293 139.917 65.5293C138.569 65.5293 137.691 64.307 137.691 62.5373C137.691 60.7675 138.645 59.558 139.993 59.558ZM141.685 62.5373C141.685 61.3787 141.15 60.2455 140.057 60.2455C139.154 60.2455 138.403 61.0985 138.403 62.5373C138.403 63.976 139.065 64.8418 140.019 64.8418C140.871 64.8418 141.685 64.167 141.685 62.5373ZM144.19 60.6147C144.19 60.4619 144.114 60.3601 143.961 60.3601H143.529V59.6853H144.253C144.699 59.6853 144.877 59.889 144.877 60.3728V64.4726C144.877 64.6381 144.953 64.7272 145.106 64.7272H145.538V65.402H144.813C144.368 65.402 144.19 65.1983 144.19 64.7145V60.6147ZM144.164 57.4317H144.838V58.4121H144.164V57.4317ZM148.908 59.558C149.493 59.558 150.727 59.8253 150.727 60.7675V61.2768H150.078V60.9458C150.078 60.4747 149.328 60.2455 148.908 60.2455C147.802 60.2455 146.924 61.1622 146.924 62.55C146.924 63.9378 147.852 64.829 148.933 64.829C150.014 64.829 150.587 64.0269 150.587 64.0269L150.917 64.5999C150.917 64.5999 150.231 65.5293 148.908 65.5293C147.382 65.5293 146.212 64.3198 146.212 62.55C146.212 60.7802 147.382 59.558 148.908 59.558ZM154.733 61.8752H155.012V61.8115C155.012 60.6147 154.631 60.1946 153.69 60.1946C153.435 60.1946 152.685 60.271 152.685 60.6911V61.0604H152.024V60.5129C152.024 59.7235 153.245 59.5452 153.69 59.5452C155.305 59.5452 155.699 60.5129 155.699 61.7352V64.4726C155.699 64.6381 155.775 64.7272 155.928 64.7272H156.36V65.402H155.661C155.229 65.402 155.051 65.1855 155.051 64.7272V64.307H155.025C155.025 64.307 154.605 65.542 153.321 65.542C152.469 65.542 151.579 64.9818 151.579 63.8487C151.579 61.9516 153.83 61.8879 154.72 61.8879L154.733 61.8752ZM153.448 64.8672C154.427 64.8672 155.012 63.7341 155.012 62.741V62.4736H154.72C153.919 62.4736 152.304 62.4991 152.304 63.7723C152.304 64.307 152.685 64.8545 153.448 64.8545V64.8672ZM157.454 58.3357C157.454 58.1829 157.378 58.081 157.225 58.081H156.793V57.4062H157.518C157.95 57.4062 158.141 57.61 158.141 58.0938V64.4598C158.141 64.6253 158.217 64.7145 158.37 64.7145H158.802V65.3893H158.077C157.645 65.3893 157.454 65.1855 157.454 64.7017V58.3357ZM162.376 64.689H162.503C162.681 64.689 162.795 64.6508 162.872 64.4344L165.212 57.4062H165.975L168.315 64.4344C168.391 64.6508 168.493 64.689 168.684 64.689H168.811V65.3893H168.48C167.971 65.3893 167.819 65.2747 167.628 64.7272L167.005 62.8428H164.169L163.533 64.7272C163.355 65.2747 163.202 65.3893 162.694 65.3893H162.363V64.689H162.376ZM166.827 62.1553L165.886 59.3033C165.759 58.9341 165.606 58.272 165.606 58.272H165.581C165.581 58.272 165.428 58.9341 165.301 59.3033L164.36 62.1553H166.814H166.827ZM169.854 64.0015C169.854 64.0015 170.426 64.8672 171.431 64.8672C172.003 64.8672 172.512 64.5617 172.512 63.9633C172.512 62.7155 169.637 62.9447 169.637 61.0985C169.637 60.0673 170.426 59.558 171.456 59.558C171.977 59.558 173.02 59.7871 173.02 60.5893V61.0731H172.372V60.8057C172.372 60.3856 171.825 60.2328 171.481 60.2328C170.769 60.2328 170.337 60.5001 170.337 61.0604C170.337 62.3463 173.211 62.0535 173.211 63.9378C173.211 64.8927 172.435 65.542 171.418 65.542C170.082 65.542 169.447 64.5489 169.447 64.5489L169.841 64.0142L169.854 64.0015ZM174.33 64.0015C174.33 64.0015 174.902 64.8672 175.907 64.8672C176.479 64.8672 176.988 64.5617 176.988 63.9633C176.988 62.7155 174.114 62.9447 174.114 61.0985C174.114 60.0673 174.902 59.558 175.932 59.558C176.454 59.558 177.484 59.7871 177.484 60.5893V61.0731H176.835V60.8057C176.835 60.3856 176.289 60.2328 175.945 60.2328C175.233 60.2328 174.801 60.5001 174.801 61.0604C174.801 62.3463 177.675 62.0535 177.675 63.9378C177.675 64.8927 176.899 65.542 175.882 65.542C174.546 65.542 173.923 64.5489 173.923 64.5489L174.317 64.0142L174.33 64.0015ZM181.032 59.558C182.533 59.558 183.741 60.8312 183.741 62.5245C183.741 64.2179 182.533 65.542 181.045 65.542C179.557 65.542 178.336 64.2434 178.336 62.5245C178.336 60.8057 179.544 59.558 181.032 59.558ZM181.032 64.8418C182.126 64.8418 183.016 63.8487 183.016 62.5118C183.016 61.1749 182.113 60.2582 181.032 60.2582C179.951 60.2582 179.036 61.2259 179.036 62.5118C179.036 63.7977 179.938 64.8418 181.032 64.8418ZM187.251 59.558C187.836 59.558 189.07 59.8253 189.07 60.7675V61.2768H188.421V60.9458C188.421 60.4747 187.683 60.2455 187.251 60.2455C186.145 60.2455 185.267 61.1622 185.267 62.55C185.267 63.9378 186.195 64.829 187.276 64.829C188.357 64.829 188.93 64.0269 188.93 64.0269L189.26 64.5999C189.26 64.5999 188.574 65.5293 187.251 65.5293C185.725 65.5293 184.555 64.3198 184.555 62.55C184.555 60.7802 185.725 59.558 187.251 59.558ZM190.468 60.6147C190.468 60.4619 190.392 60.3601 190.24 60.3601H189.807V59.6853H190.532C190.977 59.6853 191.155 59.889 191.155 60.3728V64.4726C191.155 64.6381 191.232 64.7272 191.384 64.7272H191.817V65.402H191.092C190.647 65.402 190.468 65.1983 190.468 64.7145V60.6147ZM190.443 57.4317H191.117V58.4121H190.443V57.4317ZM195.632 61.8752H195.912V61.8115C195.912 60.6147 195.53 60.1946 194.589 60.1946C194.335 60.1946 193.584 60.271 193.584 60.6911V61.0604H192.923V60.5129C192.923 59.7235 194.144 59.5452 194.589 59.5452C196.204 59.5452 196.598 60.5129 196.598 61.7352V64.4726C196.598 64.6381 196.675 64.7272 196.827 64.7272H197.26V65.402H196.56C196.115 65.402 195.95 65.1855 195.95 64.7272V64.307H195.924C195.924 64.307 195.505 65.542 194.22 65.542C193.368 65.542 192.478 64.9818 192.478 63.8487C192.478 61.9516 194.729 61.8879 195.619 61.8879L195.632 61.8752ZM194.347 64.8672C195.327 64.8672 195.912 63.7341 195.912 62.741V62.4736H195.619C194.818 62.4736 193.203 62.4991 193.203 63.7723C193.203 64.307 193.584 64.8545 194.347 64.8545V64.8672ZM198.43 60.3346H197.756V59.6853H198.442V58.1065H199.129V59.6853H200.413V60.3346H199.129V63.2375C199.129 64.5744 199.892 64.7527 200.286 64.7527C200.426 64.7527 200.515 64.7272 200.515 64.7272V65.4147C200.515 65.4147 200.388 65.4402 200.223 65.4402C199.638 65.4402 198.442 65.2237 198.442 63.3139V60.3346H198.43ZM201.825 60.6147C201.825 60.4619 201.749 60.3601 201.596 60.3601H201.164V59.6853H201.889C202.334 59.6853 202.512 59.889 202.512 60.3728V64.4726C202.512 64.6381 202.588 64.7272 202.741 64.7272H203.173V65.402H202.448C202.003 65.402 201.825 65.1983 201.825 64.7145V60.6147ZM201.8 57.4317H202.474V58.4121H201.8V57.4317ZM206.556 59.558C208.057 59.558 209.265 60.8312 209.265 62.5245C209.265 64.2179 208.057 65.542 206.569 65.542C205.081 65.542 203.86 64.2434 203.86 62.5245C203.86 60.8057 205.068 59.558 206.556 59.558ZM206.556 64.8418C207.65 64.8418 208.54 63.8487 208.54 62.5118C208.54 61.1749 207.637 60.2582 206.556 60.2582C205.475 60.2582 204.559 61.2259 204.559 62.5118C204.559 63.7977 205.45 64.8418 206.556 64.8418ZM210.562 60.6147C210.562 60.4619 210.486 60.3601 210.333 60.3601H209.901V59.6853H210.613C211.045 59.6853 211.236 59.889 211.236 60.3219V60.5893C211.236 60.8184 211.211 60.9967 211.211 60.9967H211.236C211.414 60.4747 212.075 59.558 213.271 59.558C214.543 59.558 214.988 60.3601 214.988 61.7734V64.4853C214.988 64.6508 215.064 64.7399 215.217 64.7399H215.649V65.4147H214.924C214.479 65.4147 214.301 65.211 214.301 64.7272V61.9898C214.301 61.0985 214.174 60.2964 213.194 60.2964C212.317 60.2964 211.567 60.9712 211.338 61.9134C211.274 62.1553 211.261 62.41 211.261 62.6901V65.4275H210.575V60.6402L210.562 60.6147Z" fill="#B2A9AB"/>
<path d="M0 51.0703H218.472M0 72.0018H218.472" stroke="#B2A9AB" stroke-width="0.28" stroke-miterlimit="10"/>
</svg>
