<svg width="298" height="72" viewBox="0 0 298 72" fill="none" xmlns="http://www.w3.org/2000/svg">
<path d="M100.819 31.4558L95.2427 19.4098V31.4558H92.7812V16.6797H96.4263L102.003 28.7693V16.6797H104.464V31.4558H100.819Z" fill="#B2A9AB"/>
<path d="M111.899 24.6074H114.404C114.404 23.9176 114.136 23.3948 113.598 23.0463C113.061 22.6978 112.284 22.5235 111.268 22.5235H111.202C110.244 22.5235 109.22 22.7486 108.153 23.1988L107.535 21.3109C108.654 20.8317 109.881 20.5848 111.224 20.5703H111.268C113.047 20.5703 114.419 20.9116 115.37 21.6014C116.321 22.2839 116.8 23.3803 116.8 24.8761V31.4473H114.513V30.2783C114.063 30.7285 113.504 31.077 112.85 31.3311C112.19 31.578 111.529 31.7014 110.846 31.7014C109.576 31.7014 108.545 31.3674 107.761 30.6921C106.976 30.0241 106.584 29.1964 106.584 28.2234C106.584 27.1343 107.071 26.2412 108.051 25.5296C108.959 24.9051 110.244 24.5929 111.907 24.5929L111.899 24.6074ZM111.246 29.8063C111.87 29.8063 112.48 29.6538 113.09 29.3489C113.7 29.0439 114.136 28.6954 114.404 28.296V26.4953H112.262C111.05 26.4953 110.2 26.6478 109.721 26.96C109.256 27.3158 109.024 27.7369 109.024 28.2307C109.024 28.6809 109.22 29.0584 109.619 29.3561C110.011 29.6538 110.556 29.799 111.253 29.799L111.246 29.8063Z" fill="#B2A9AB"/>
<path d="M122.689 17.4219V20.8345H124.998V22.7878H122.689V28.1972C122.689 28.7055 122.813 29.054 123.06 29.25C123.306 29.4388 123.655 29.5332 124.112 29.5332H125.005V31.4647H123.539C122.392 31.4647 121.556 31.2105 121.034 30.7022C120.511 30.194 120.25 29.4388 120.25 28.4368V22.795H118.427V20.8418H120.25V17.4291H122.689V17.4219Z" fill="#B2A9AB"/>
<path d="M129.812 17.531C129.812 17.9231 129.66 18.2789 129.355 18.5838C129.05 18.8888 128.687 19.0413 128.266 19.0413C127.844 19.0413 127.474 18.8888 127.176 18.5838C126.871 18.2789 126.719 17.9303 126.719 17.531C126.719 17.1098 126.871 16.7395 127.176 16.4418C127.481 16.1441 127.844 15.9844 128.266 15.9844C128.687 15.9844 129.057 16.1369 129.355 16.4418C129.66 16.7468 129.812 17.1098 129.812 17.531ZM127.075 31.4576V20.8347H129.493V31.4576H127.075Z" fill="#B2A9AB"/>
<path d="M137.313 31.7087C135.759 31.7087 134.43 31.1786 133.334 30.104C132.237 29.0366 131.693 27.7151 131.693 26.1468C131.693 24.5784 132.237 23.2569 133.334 22.1823C134.43 21.1076 135.752 20.5703 137.313 20.5703C138.874 20.5703 140.21 21.1076 141.299 22.1823C142.388 23.2569 142.933 24.5784 142.933 26.1468C142.933 27.7151 142.388 29.0366 141.299 30.104C140.21 31.1714 138.881 31.7087 137.313 31.7087ZM137.313 29.7192C138.191 29.7192 138.939 29.3852 139.571 28.7099C140.203 28.0419 140.515 27.1851 140.515 26.154C140.515 25.123 140.203 24.2879 139.571 23.5981C138.939 22.9156 138.191 22.5671 137.313 22.5671C136.434 22.5671 135.708 22.9084 135.077 23.5981C134.445 24.2807 134.133 25.1375 134.133 26.154C134.133 27.1706 134.445 28.0346 135.077 28.7099C135.708 29.3779 136.449 29.7192 137.313 29.7192Z" fill="#B2A9AB"/>
<path d="M147.406 26.1116V31.4557H145.01V20.8328H147.319V22.256C147.602 21.7622 148.008 21.3556 148.546 21.0506C149.083 20.7384 149.664 20.5859 150.281 20.5859C151.537 20.5859 152.546 21.0143 153.302 21.8711C154.057 22.7279 154.434 23.8679 154.434 25.2983V31.4702H152.016V25.9155C152.016 24.7828 151.835 23.9478 151.465 23.4032C151.094 22.8586 150.528 22.59 149.765 22.59C149.373 22.59 148.981 22.7207 148.611 22.9821C148.233 23.2435 147.95 23.5993 147.754 24.0567C147.515 24.5795 147.391 25.2693 147.391 26.1333L147.406 26.1116Z" fill="#B2A9AB"/>
<path d="M161.819 24.6074H164.324C164.324 23.9176 164.055 23.3948 163.518 23.0463C162.98 22.6978 162.203 22.5235 161.187 22.5235H161.122C160.163 22.5235 159.139 22.7486 158.065 23.1988L157.448 21.3109C158.566 20.8317 159.793 20.5848 161.136 20.5703H161.18C162.959 20.5703 164.331 20.9116 165.282 21.6014C166.233 22.2839 166.713 23.3803 166.713 24.8761V31.4473H164.425V30.2783C163.975 30.7285 163.416 31.077 162.763 31.3311C162.102 31.578 161.441 31.7014 160.759 31.7014C159.488 31.7014 158.457 31.3674 157.673 30.6921C156.888 30.0241 156.496 29.1964 156.496 28.2234C156.496 27.1343 156.983 26.2412 157.963 25.5296C158.871 24.9051 160.156 24.5929 161.819 24.5929V24.6074ZM161.158 29.8063C161.782 29.8063 162.392 29.6538 163.002 29.3489C163.612 29.0439 164.048 28.6954 164.316 28.296V26.4953H162.174C160.962 26.4953 160.112 26.6478 159.633 26.96C159.168 27.3158 158.936 27.7369 158.936 28.2307C158.936 28.6809 159.132 29.0584 159.531 29.3561C159.924 29.6538 160.468 29.799 161.165 29.799L161.158 29.8063Z" fill="#B2A9AB"/>
<path d="M169.508 31.4517V15.6953H171.904V31.4517H169.508Z" fill="#B2A9AB"/>
<path d="M181.184 31.4558V16.6797H183.667V31.4558H181.184Z" fill="#B2A9AB"/>
<path d="M189.026 26.1116V31.4557H186.63V20.8328H188.939V22.256C189.222 21.7622 189.628 21.3556 190.166 21.0506C190.703 20.7384 191.284 20.5859 191.901 20.5859C193.157 20.5859 194.167 21.0143 194.922 21.8711C195.677 22.7279 196.054 23.8679 196.054 25.2983V31.4702H193.637V25.9155C193.637 24.7828 193.455 23.9478 193.085 23.4032C192.714 22.8586 192.148 22.59 191.386 22.59C190.993 22.59 190.601 22.7207 190.231 22.9821C189.854 23.2435 189.57 23.5993 189.374 24.0567C189.135 24.5795 189.011 25.2693 189.011 26.1333L189.026 26.1116Z" fill="#B2A9AB"/>
<path d="M197.884 29.4879L199.387 27.9413C199.808 28.5222 200.28 28.9724 200.788 29.2991C201.282 29.5968 201.812 29.7421 202.379 29.7421C202.916 29.7421 203.373 29.6331 203.744 29.4153C204.121 29.1975 204.303 28.8998 204.303 28.5367C204.303 28.1737 204.121 27.8832 203.765 27.6799C203.41 27.4766 202.974 27.2806 202.48 27.0991C201.899 26.9175 201.304 26.707 200.701 26.4819C199.881 26.1842 199.278 25.8066 198.901 25.3346C198.516 24.8699 198.327 24.3399 198.327 23.7445C198.327 22.8659 198.734 22.1253 199.554 21.5081C200.375 20.8909 201.34 20.5859 202.458 20.5859C203.649 20.5859 204.615 20.8691 205.363 21.4355C205.748 21.7332 206.045 22.1035 206.278 22.5391L204.796 23.9841C204.6 23.6428 204.368 23.3669 204.099 23.1563C203.635 22.7497 203.047 22.5391 202.342 22.5391C201.936 22.5391 201.573 22.6408 201.275 22.8441C200.97 23.0474 200.817 23.2943 200.817 23.5775C200.817 23.8897 200.984 24.1511 201.326 24.3617C201.667 24.5722 202.168 24.7755 202.829 24.9788C203.068 25.0515 203.344 25.1313 203.657 25.233C204.688 25.5742 205.472 26.0099 206.002 26.5472C206.532 27.0845 206.801 27.7308 206.801 28.4786C206.801 29.3572 206.379 30.1124 205.53 30.7586C204.68 31.4048 203.598 31.7243 202.284 31.7243C201.181 31.7243 200.208 31.4702 199.358 30.9619C198.792 30.6206 198.305 30.1342 197.891 29.4952L197.884 29.4879Z" fill="#B2A9AB"/>
<path d="M211.796 17.4219V20.8345H214.105V22.7878H211.796V28.1972C211.796 28.7055 211.92 29.054 212.166 29.25C212.413 29.4388 212.762 29.5332 213.219 29.5332H214.112V31.4647H212.646C211.498 31.4647 210.663 31.2105 210.141 30.7022C209.618 30.194 209.356 29.4388 209.356 28.4368V22.795H207.534V20.8418H209.356V17.4291H211.796V17.4219Z" fill="#B2A9AB"/>
<path d="M218.912 17.531C218.912 17.9231 218.759 18.2789 218.454 18.5838C218.149 18.8888 217.786 19.0413 217.365 19.0413C216.944 19.0413 216.574 18.8888 216.276 18.5838C215.971 18.2789 215.819 17.9303 215.819 17.531C215.819 17.1098 215.971 16.7395 216.276 16.4418C216.581 16.1369 216.944 15.9844 217.365 15.9844C217.786 15.9844 218.149 16.1369 218.454 16.4418C218.759 16.7468 218.912 17.1098 218.912 17.531ZM216.174 31.4576V20.8347H218.592V31.4576H216.174Z" fill="#B2A9AB"/>
<path d="M224.634 17.4219V20.8345H226.943V22.7878H224.634V28.1972C224.634 28.7055 224.757 29.054 225.004 29.25C225.251 29.4388 225.599 29.5332 226.057 29.5332H226.95V31.4647H225.483C224.336 31.4647 223.501 31.2105 222.978 30.7022C222.455 30.194 222.194 29.4388 222.194 28.4368V22.795H220.371V20.8418H222.194V17.4291H224.634V17.4219Z" fill="#B2A9AB"/>
<path d="M235.975 26.1722V20.8281H238.393V31.451H236.084V30.0496C235.787 30.5724 235.394 30.9717 234.893 31.2404C234.313 31.5526 233.71 31.7051 233.093 31.7051C231.851 31.7051 230.849 31.284 230.094 30.4344C229.339 29.5849 228.961 28.4449 228.961 27V20.8281H231.357V26.4046C231.357 27.5228 231.546 28.3505 231.916 28.8951C232.294 29.4397 232.86 29.7083 233.623 29.7083C234.008 29.7083 234.385 29.5776 234.77 29.3162C235.155 29.0548 235.438 28.7063 235.641 28.2634C235.866 27.7406 235.983 27.0435 235.983 26.165L235.975 26.1722Z" fill="#B2A9AB"/>
<path d="M244.282 17.4219V20.8345H246.591V22.7878H244.282V28.1972C244.282 28.7055 244.405 29.054 244.652 29.25C244.899 29.4388 245.247 29.5332 245.705 29.5332H246.598V31.4647H245.131C243.984 31.4647 243.149 31.2105 242.626 30.7022C242.103 30.194 241.842 29.4388 241.842 28.4368V22.795H240.02V20.8418H241.842V17.4291H244.282V17.4219Z" fill="#B2A9AB"/>
<path d="M250.388 27.2147C250.526 27.8682 250.831 28.3982 251.303 28.8048C251.979 29.4293 252.879 29.7415 253.997 29.7415C255.173 29.7415 256.263 29.3131 257.286 28.4491L258.005 30.228C256.858 31.2155 255.5 31.7092 253.932 31.7092C252.138 31.7092 250.679 31.201 249.553 30.1844C248.428 29.1679 247.869 27.8319 247.869 26.1764C247.869 24.5208 248.37 23.2139 249.365 22.161C250.359 21.1082 251.666 20.5781 253.278 20.5781C254.89 20.5781 256.161 21.1009 257.17 22.1465C258.18 23.1921 258.688 24.4845 258.688 26.0239C258.688 26.445 258.651 26.8444 258.579 27.2147H250.396H250.388ZM250.345 25.305H256.241C256.212 24.6152 255.921 23.9763 255.37 23.4099C254.818 22.8363 254.121 22.5531 253.271 22.5531C252.422 22.5531 251.674 22.8653 251.107 23.4898C250.701 23.9545 250.439 24.5644 250.345 25.3123V25.305Z" fill="#B2A9AB"/>
<path d="M271.561 31.7087C270.008 31.7087 268.679 31.1786 267.582 30.104C266.486 29.0366 265.941 27.7151 265.941 26.1468C265.941 24.5784 266.486 23.2569 267.582 22.1823C268.679 21.1076 270 20.5703 271.561 20.5703C273.123 20.5703 274.459 21.1076 275.548 22.1823C276.637 23.2569 277.181 24.5784 277.181 26.1468C277.181 27.7151 276.637 29.0366 275.548 30.104C274.459 31.1714 273.13 31.7087 271.561 31.7087ZM271.561 29.7192C272.44 29.7192 273.188 29.3852 273.82 28.7099C274.451 28.0419 274.764 27.1851 274.764 26.154C274.764 25.123 274.451 24.2879 273.82 23.5981C273.188 22.9156 272.44 22.5671 271.561 22.5671C270.683 22.5671 269.957 22.9084 269.325 23.5981C268.693 24.2807 268.381 25.1375 268.381 26.154C268.381 27.1706 268.693 28.0346 269.325 28.7099C269.957 29.3779 270.697 29.7192 271.561 29.7192Z" fill="#B2A9AB"/>
<path d="M279.803 18.7153C279.803 17.7133 280.079 16.9582 280.638 16.4499C281.197 15.9416 282.046 15.6875 283.194 15.6875H284.363V17.6189H283.666C283.215 17.6189 282.86 17.7133 282.613 17.9021C282.366 18.0909 282.242 18.4394 282.242 18.955V20.8428H284.363V22.796H282.242V31.4657H279.803V22.796H277.98V20.8428H279.803V18.7226V18.7153Z" fill="#B2A9AB"/>
<path d="M99.7372 42.7266L104.914 57.5027H102.387L100.906 53.1534H95.2208L93.7396 57.5027H91.1982L96.3753 42.7266H99.7444H99.7372ZM95.9179 51.0985H100.202L98.0817 44.8831L95.9179 51.0985Z" fill="#B2A9AB"/>
<path d="M110.542 61.7424C108.915 61.7424 107.521 61.3358 106.367 60.5153L107.085 58.5839C108.16 59.3753 109.315 59.7747 110.542 59.7747C111.616 59.7747 112.459 59.4697 113.076 58.8598C113.693 58.2499 113.998 57.5673 113.998 56.8049V56.166C113.119 57.2261 112.008 57.7561 110.672 57.7561C109.118 57.7561 107.862 57.2043 106.897 56.1006C105.938 54.9969 105.452 53.6972 105.452 52.2014C105.452 50.7057 105.931 49.3987 106.897 48.2878C107.855 47.1768 109.118 46.625 110.672 46.625C111.928 46.625 113.01 47.1333 113.918 48.1498V46.8791H116.336V55.7013C116.336 57.7198 115.835 59.2374 114.833 60.2394C113.831 61.2414 112.4 61.7424 110.549 61.7424H110.542ZM113.896 52.9058C113.94 52.4265 113.94 51.9618 113.896 51.5044C113.809 50.6984 113.511 50.0304 113.003 49.4931C112.437 48.8977 111.74 48.6 110.905 48.6C109.968 48.6 109.235 48.9485 108.697 49.6383C108.16 50.3281 107.891 51.1849 107.891 52.2014C107.891 53.218 108.16 54.0893 108.697 54.7646C109.235 55.4399 109.968 55.7811 110.905 55.7811C111.74 55.7811 112.437 55.4834 113.003 54.888C113.511 54.3507 113.809 53.69 113.896 52.8912V52.9058Z" fill="#B2A9AB"/>
<path d="M119.11 57.5008V46.8779H121.375V48.4681C121.731 47.9453 122.159 47.5459 122.667 47.2628C123.277 46.8925 123.989 46.7109 124.809 46.7109H124.976V48.8747H124.722C123.72 48.8747 122.922 49.1797 122.326 49.7896C121.774 50.385 121.498 51.3072 121.498 52.5706V57.508H119.102L119.11 57.5008Z" fill="#B2A9AB"/>
<path d="M129.471 43.57C129.471 43.9621 129.318 44.3179 129.013 44.6229C128.708 44.9278 128.345 45.0803 127.924 45.0803C127.503 45.0803 127.133 44.9278 126.835 44.6229C126.53 44.3179 126.378 43.9694 126.378 43.57C126.378 43.1489 126.53 42.7786 126.835 42.4809C127.14 42.1759 127.503 42.0234 127.924 42.0234C128.345 42.0234 128.708 42.1759 129.013 42.4809C129.318 42.7858 129.471 43.1489 129.471 43.57ZM126.733 57.4966V46.8738H129.151V57.4966H126.733Z" fill="#B2A9AB"/>
<path d="M131.352 52.2014C131.352 50.6766 131.925 49.3624 133.08 48.266C134.234 47.1696 135.694 46.625 137.458 46.625C138.845 46.625 140.145 47.0679 141.357 47.961L140.573 49.8489C139.513 49.0284 138.475 48.6218 137.458 48.6218C136.369 48.6218 135.483 48.9703 134.808 49.6601C134.133 50.3499 133.791 51.1994 133.791 52.2014C133.791 53.2035 134.133 54.053 134.808 54.7355C135.483 55.4181 136.369 55.7666 137.458 55.7666C138.489 55.7666 139.542 55.3672 140.617 54.5613L141.401 56.4491C140.225 57.3277 138.91 57.7634 137.458 57.7634C135.694 57.7634 134.234 57.2188 133.08 56.1297C131.925 55.0405 131.352 53.7335 131.352 52.2087V52.2014Z" fill="#B2A9AB"/>
<path d="M150.586 52.2191V46.875H153.004V57.4978H150.695V56.0965C150.397 56.6193 150.005 57.0186 149.504 57.2873C148.923 57.5995 148.32 57.752 147.703 57.752C146.462 57.752 145.46 57.3308 144.704 56.4813C143.949 55.6318 143.572 54.4918 143.572 53.0469V46.875H145.968V52.4514C145.968 53.5696 146.157 54.3974 146.527 54.942C146.905 55.4865 147.471 55.7552 148.233 55.7552C148.618 55.7552 148.996 55.6245 149.381 55.3631C149.765 55.1017 150.049 54.7532 150.252 54.3103C150.477 53.7875 150.593 53.0904 150.593 52.2118L150.586 52.2191Z" fill="#B2A9AB"/>
<path d="M155.792 57.4986V41.7422H158.188V57.4986H155.792Z" fill="#B2A9AB"/>
<path d="M164.142 43.4609V46.8736H166.451V48.8268H164.142V54.2363C164.142 54.7445 164.266 55.0931 164.512 55.2891C164.759 55.4779 165.108 55.5723 165.565 55.5723H166.458V57.5037H164.992C163.844 57.5037 163.009 57.2496 162.487 56.7413C161.964 56.233 161.702 55.4779 161.702 54.4759V48.8341H159.88V46.8809H161.702V43.4682H164.142V43.4609Z" fill="#B2A9AB"/>
<path d="M175.484 52.2191V46.875H177.902V57.4978H175.593V56.0965C175.295 56.6193 174.903 57.0186 174.402 57.2873C173.821 57.5995 173.218 57.752 172.601 57.752C171.36 57.752 170.358 57.3308 169.602 56.4813C168.847 55.6318 168.47 54.4918 168.47 53.0469V46.875H170.866V52.4514C170.866 53.5696 171.055 54.3974 171.425 54.942C171.803 55.4865 172.369 55.7552 173.131 55.7552C173.516 55.7552 173.894 55.6245 174.279 55.3631C174.663 55.1017 174.947 54.7532 175.15 54.3103C175.375 53.7875 175.491 53.0904 175.491 52.2118L175.484 52.2191Z" fill="#B2A9AB"/>
<path d="M180.697 57.5008V46.8779H182.963V48.4681C183.318 47.9453 183.747 47.5459 184.255 47.2628C184.865 46.8925 185.577 46.7109 186.397 46.7109H186.564V48.8747H186.31C185.308 48.8747 184.509 49.1797 183.914 49.7896C183.362 50.385 183.086 51.3072 183.086 52.5706V57.508H180.69L180.697 57.5008Z" fill="#B2A9AB"/>
<path d="M192.758 50.6543H195.263C195.263 49.9645 194.994 49.4417 194.457 49.0932C193.92 48.7447 193.143 48.5704 192.126 48.5704H192.061C191.102 48.5704 190.079 48.7955 189.004 49.2457L188.387 47.3578C189.505 46.8786 190.732 46.6317 192.075 46.6172H192.119C193.898 46.6172 195.27 46.9585 196.221 47.6483C197.173 48.3308 197.652 49.4272 197.652 50.923V57.4942H195.365V56.3251C194.914 56.7753 194.355 57.1239 193.702 57.378C193.041 57.6249 192.38 57.7483 191.698 57.7483C190.427 57.7483 189.396 57.4143 188.612 56.739C187.828 56.071 187.436 55.2433 187.436 54.2703C187.436 53.1811 187.922 52.288 188.902 51.5765C189.81 50.952 191.095 50.6398 192.758 50.6398V50.6543ZM192.104 55.8532C192.729 55.8532 193.339 55.7007 193.949 55.3957C194.559 55.0908 194.994 54.7422 195.263 54.3429V52.5422H193.121C191.908 52.5422 191.059 52.6946 190.58 53.0069C190.115 53.3627 189.883 53.7838 189.883 54.2775C189.883 54.7277 190.079 55.1053 190.478 55.403C190.87 55.7007 191.415 55.8459 192.112 55.8459L192.104 55.8532Z" fill="#B2A9AB"/>
<path d="M200.454 57.4986V41.7422H202.85V57.4986H200.454Z" fill="#B2A9AB"/>
<path d="M211.324 54.5148L212.958 52.8592C213.394 53.7959 213.945 54.4784 214.613 54.9141C215.332 55.3933 216.066 55.6329 216.799 55.6329C217.576 55.6329 218.244 55.4296 218.789 55.0158C219.34 54.6237 219.616 54.0936 219.616 53.4474C219.616 52.8665 219.34 52.3945 218.781 52.0387C218.222 51.6757 217.619 51.3707 216.966 51.1166C216.313 50.877 215.637 50.6156 214.933 50.3324C213.8 49.9258 212.994 49.3885 212.508 48.7205C212.021 48.0597 211.774 47.3554 211.774 46.622C211.774 45.4748 212.261 44.5018 213.241 43.6886C214.214 42.8754 215.412 42.4688 216.828 42.4688C218.309 42.4688 219.522 42.8536 220.451 43.616C220.931 43.9863 221.265 44.3929 221.446 44.8431L219.965 46.4115C219.834 46.1573 219.602 45.8669 219.268 45.5402C218.549 44.8867 217.692 44.5672 216.705 44.5672C216.08 44.5672 215.536 44.7414 215.064 45.09C214.592 45.4385 214.352 45.8959 214.352 46.4768C214.352 47.3554 215.31 48.1323 217.235 48.8076C217.59 48.9238 217.954 49.0472 218.338 49.1924C219.624 49.6862 220.589 50.2671 221.235 50.9423C221.882 51.6104 222.201 52.4454 222.201 53.4329C222.201 54.6091 221.7 55.6184 220.698 56.468C219.711 57.332 218.433 57.7604 216.857 57.7604C215.412 57.7604 214.221 57.4337 213.27 56.7874C212.348 56.1485 211.709 55.3933 211.339 54.522L211.324 54.5148Z" fill="#B2A9AB"/>
<path d="M223.639 52.2014C223.639 50.6766 224.213 49.3624 225.367 48.266C226.522 47.1696 227.981 46.625 229.745 46.625C231.132 46.625 232.432 47.0679 233.645 47.961L232.86 49.8489C231.8 49.0284 230.762 48.6218 229.745 48.6218C228.656 48.6218 227.77 48.9703 227.095 49.6601C226.42 50.3499 226.079 51.1994 226.079 52.2014C226.079 53.2035 226.42 54.053 227.095 54.7355C227.77 55.4181 228.656 55.7666 229.745 55.7666C230.776 55.7666 231.829 55.3672 232.904 54.5613L233.688 56.4491C232.512 57.3277 231.198 57.7634 229.745 57.7634C227.981 57.7634 226.522 57.2188 225.367 56.1297C224.213 55.0405 223.639 53.7335 223.639 52.2087V52.2014Z" fill="#B2A9AB"/>
<path d="M238.647 43.57C238.647 43.9621 238.495 44.3179 238.19 44.6229C237.885 44.9278 237.522 45.0803 237.101 45.0803C236.679 45.0803 236.309 44.9278 236.011 44.6229C235.706 44.3179 235.554 43.9694 235.554 43.57C235.554 43.1489 235.706 42.7786 236.011 42.4809C236.316 42.1759 236.679 42.0234 237.101 42.0234C237.522 42.0234 237.892 42.1759 238.19 42.4809C238.495 42.7858 238.647 43.1489 238.647 43.57ZM235.91 57.4966V46.8738H238.328V57.4966H235.91Z" fill="#B2A9AB"/>
<path d="M243.055 53.2616C243.193 53.915 243.498 54.4451 243.97 54.8517C244.645 55.4762 245.545 55.7884 246.663 55.7884C247.84 55.7884 248.929 55.36 249.953 54.4959L250.672 56.2749C249.524 57.2624 248.166 57.7561 246.598 57.7561C244.805 57.7561 243.345 57.2478 242.22 56.2313C241.094 55.2148 240.535 53.8787 240.535 52.2232C240.535 50.5677 241.036 49.2607 242.031 48.2079C243.026 47.1551 244.333 46.625 245.945 46.625C247.557 46.625 248.827 47.1478 249.836 48.1934C250.846 49.239 251.354 50.5314 251.354 52.0708C251.354 52.4919 251.318 52.8912 251.245 53.2616H243.062H243.055ZM243.011 51.3519H248.907C248.878 50.6621 248.588 50.0231 248.036 49.4568C247.484 48.8904 246.787 48.6 245.937 48.6C245.088 48.6 244.34 48.9122 243.774 49.5367C243.36 50.0014 243.106 50.6113 243.011 51.3592V51.3519Z" fill="#B2A9AB"/>
<path d="M255.79 52.1584V57.5025H253.394V46.8797H255.703V48.3028C255.986 47.8091 256.393 47.4025 256.93 47.0975C257.468 46.7853 258.049 46.6328 258.673 46.6328C259.929 46.6328 260.938 47.0612 261.694 47.918C262.449 48.7748 262.826 49.9148 262.826 51.3452V57.5171H260.408V51.9624C260.408 50.8297 260.227 49.9947 259.857 49.4501C259.486 48.9055 258.92 48.6369 258.158 48.6369C257.765 48.6369 257.373 48.7675 257.003 49.0289C256.625 49.2903 256.342 49.6461 256.146 50.1036C255.907 50.6264 255.783 51.3162 255.783 52.1802L255.79 52.1584Z" fill="#B2A9AB"/>
<path d="M264.888 52.2014C264.888 50.6766 265.462 49.3624 266.617 48.266C267.771 47.1696 269.231 46.625 270.995 46.625C272.382 46.625 273.681 47.0679 274.894 47.961L274.11 49.8489C273.05 49.0284 272.011 48.6218 270.995 48.6218C269.906 48.6218 269.02 48.9703 268.345 49.6601C267.669 50.3499 267.328 51.1994 267.328 52.2014C267.328 53.2035 267.669 54.053 268.345 54.7355C269.02 55.4181 269.906 55.7666 270.995 55.7666C272.026 55.7666 273.079 55.3672 274.153 54.5613L274.938 56.4491C273.761 57.3277 272.447 57.7634 270.995 57.7634C269.231 57.7634 267.771 57.2188 266.617 56.1297C265.462 55.0405 264.888 53.7335 264.888 52.2087V52.2014Z" fill="#B2A9AB"/>
<path d="M278.873 53.2616C279.011 53.915 279.316 54.4451 279.788 54.8517C280.463 55.4762 281.364 55.7884 282.482 55.7884C283.658 55.7884 284.747 55.36 285.771 54.4959L286.49 56.2749C285.343 57.2624 283.985 57.7561 282.417 57.7561C280.623 57.7561 279.164 57.2478 278.038 56.2313C276.913 55.2148 276.354 53.8787 276.354 52.2232C276.354 50.5677 276.855 49.2607 277.85 48.2079C278.844 47.1551 280.151 46.625 281.763 46.625C283.375 46.625 284.646 47.1478 285.655 48.1934C286.664 49.239 287.173 50.5314 287.173 52.0708C287.173 52.4919 287.136 52.8912 287.064 53.2616H278.881H278.873ZM278.837 51.3519H284.733C284.704 50.6621 284.413 50.0231 283.862 49.4568C283.31 48.8832 282.613 48.6 281.763 48.6C280.914 48.6 280.166 48.9122 279.599 49.5367C279.193 50.0014 278.931 50.6113 278.837 51.3592V51.3519Z" fill="#B2A9AB"/>
<path d="M288.247 55.5348L289.75 53.9882C290.171 54.5691 290.643 55.0193 291.151 55.346C291.645 55.6437 292.175 55.7889 292.742 55.7889C293.279 55.7889 293.736 55.68 294.107 55.4622C294.484 55.2444 294.666 54.9467 294.666 54.5836C294.666 54.2206 294.484 53.9301 294.128 53.7268C293.765 53.5235 293.337 53.3275 292.843 53.1459C292.262 52.9644 291.667 52.7538 291.064 52.5287C290.244 52.231 289.641 51.8535 289.264 51.3815C288.879 50.9168 288.69 50.3867 288.69 49.7913C288.69 48.9128 289.097 48.1721 289.917 47.555C290.738 46.9378 291.703 46.6328 292.821 46.6328C294.012 46.6328 294.978 46.916 295.726 47.4823C296.111 47.78 296.408 48.1504 296.641 48.586L295.16 50.031C294.963 49.6897 294.731 49.4138 294.462 49.2032C293.998 48.7966 293.41 48.586 292.705 48.586C292.299 48.586 291.936 48.6877 291.638 48.891C291.333 49.0943 291.18 49.3412 291.18 49.6243C291.18 49.9366 291.348 50.198 291.689 50.4085C292.03 50.6191 292.531 50.8224 293.192 51.0257C293.431 51.0983 293.707 51.1782 294.02 51.2799C295.051 51.6211 295.835 52.0568 296.365 52.5941C296.895 53.1314 297.164 53.7776 297.164 54.5255C297.164 55.4041 296.742 56.1592 295.893 56.8055C295.043 57.4517 293.961 57.7712 292.647 57.7712C291.544 57.7712 290.571 57.5171 289.721 57.0088C289.155 56.6675 288.668 56.181 288.254 55.5421L288.247 55.5348Z" fill="#B2A9AB"/>
<path d="M55.6047 34.3663C49.3458 30.1186 41.3369 31.8468 37.14 38.2437C33.6257 43.5878 28.3252 44.2485 26.2703 44.2485C19.5829 44.2485 15.0012 39.5434 13.6434 34.6713C13.6289 34.6205 13.6144 34.5842 13.6071 34.5333C13.5926 34.4825 13.5781 34.4244 13.5635 34.3663C13.0335 32.3332 12.8955 31.3603 12.8955 29.2037C12.8955 17.5571 24.8399 4.58895 42.0557 4.58895C59.2715 4.58895 69.7637 18.0073 72.3631 25.4643C72.3123 25.3336 72.276 25.2029 72.2324 25.065C67.2296 10.4849 53.3901 0 37.1182 0C16.6204 0 0 16.6132 0 37.111C0 55.4305 13.2223 71.1143 31.549 71.1143C46.1654 71.1143 55.9896 62.9166 60.4987 51.6257C62.9747 45.4466 61.2175 38.1856 55.6047 34.3736V34.3663Z" fill="#B2A9AB"/>
<path d="M72.5881 26.1874C70.4244 18.9119 60.259 4.58594 42.0484 4.58594C24.8325 4.58594 12.8882 17.5541 12.8882 29.2007C12.8882 31.3573 13.0189 32.3302 13.5562 34.3633C13.3311 33.4775 13.2077 32.5844 13.2077 31.713C13.2077 19.5872 25.3553 11.1789 37.837 11.1789C54.7406 11.1789 68.4348 24.8804 68.4348 41.7768C68.4348 55.0281 60.8108 66.486 49.7378 71.9971C64.0202 66.8345 74.2146 53.162 74.2146 37.1007C74.2146 33.3032 73.7063 29.9486 72.5809 26.1802L72.5881 26.1874Z" fill="#B2A9AB"/>
</svg>
