<svg width="78" height="80" viewBox="0 0 78 80" fill="none" xmlns="http://www.w3.org/2000/svg">
<path d="M45.2513 9.72712C43.9855 6.92122 39.7506 8.83859 39.7506 8.83859C43.3292 11.0989 45.2513 9.72712 45.2513 9.72712ZM38.2348 9.30624C38.6724 9.30624 39.0318 8.94771 39.0318 8.51123C39.0318 8.07476 38.6724 7.71623 38.2348 7.71623C37.7972 7.71623 37.4378 8.07476 37.4378 8.51123C37.4378 8.94771 37.7972 9.30624 38.2348 9.30624ZM47.9547 9.99212C47.9547 9.99212 46.4077 9.96095 45.0169 10.8027L49.5331 10.8651L49.6893 10.756C49.6893 10.756 47.4391 4.6765 41.4539 3.92826C41.4539 3.92826 42.8916 8.43329 47.9547 9.99212ZM51.127 11.1768C51.127 10.8495 50.8613 10.5845 50.5332 10.5845C50.205 10.5845 49.9394 10.8495 49.9394 11.1768C49.9394 11.5042 50.205 11.7692 50.5332 11.7692C50.8613 11.7692 51.127 11.5042 51.127 11.1768ZM26.9834 10.8651L31.4996 10.8027C30.0932 9.96095 28.5617 9.99212 28.5617 9.99212C33.6249 8.4177 35.0625 3.92826 35.0625 3.92826C29.0774 4.6765 26.8272 10.756 26.8272 10.756L26.9834 10.8651ZM25.5458 11.5042C25.5458 11.8315 25.8114 12.0966 26.1396 12.0966C26.4677 12.0966 26.7334 11.8315 26.7334 11.5042C26.7334 11.1768 26.4677 10.9118 26.1396 10.9118C25.8114 10.9118 25.5458 11.1768 25.5458 11.5042ZM25.9052 16.321C22.6548 14.0139 17.8886 15.8066 17.8886 15.8066C22.1078 12.5954 22.0766 7.4824 22.0766 7.4824C16.7009 10.2259 16.6697 16.7107 16.6697 16.7107C23.2486 18.6592 25.8895 16.321 25.8895 16.321M27.7179 15.0427L27.7648 12.8604C25.327 12.1433 22.8423 12.611 22.8423 12.611C27.546 10.1948 28.4211 5.14415 28.4211 5.14415C22.6548 6.92122 21.4984 13.2969 21.4984 13.2969C24.155 14.6219 26.2333 15.0272 27.7335 15.0583M53.7523 12.2368C53.7523 12.2368 51.799 11.6445 49.3143 12.4863V14.731C50.8145 14.6998 52.3459 14.3413 55.1275 12.876C55.1275 12.876 53.8148 6.51593 48.0016 4.89474C48.0016 4.89474 48.9861 9.91418 53.7523 12.2368ZM31.2652 9.97654C31.2652 9.97654 33.2498 11.286 36.7346 8.88535C36.7346 8.88535 32.4216 7.10828 31.2652 9.97654ZM61.472 40.405H58.9561V43.585H61.472V40.405ZM54.6743 18.5657L53.3773 20.1245L60.4406 27.1705L61.8627 25.7363L54.6743 18.5657ZM68.4104 18.3631L61.9408 11.9095L56.1432 18.1916L62.3628 24.3178L68.4104 18.3631ZM15.6539 17.6304C15.6539 17.9578 15.9196 18.2228 16.2477 18.2228C16.5759 18.2228 16.8416 17.9578 16.8416 17.6304C16.8416 17.3031 16.5759 17.0381 16.2477 17.0381C15.9196 17.0381 15.6539 17.3031 15.6539 17.6304ZM63.566 24.4425C64.6755 24.7543 66.0507 24.9881 67.7228 25.066C67.7228 25.066 68.4885 22.8057 68.1447 20.0778L65.9569 22.1666C66.1913 22.7278 66.4883 23.2734 66.8633 23.8346C66.8633 23.8346 66.2538 23.3357 65.3006 22.8057L63.566 24.4581V24.4425ZM61.6127 56.0089H59.0811V59.1889H61.6127V56.0089ZM57.9247 14.6842L59.3936 13.2033C58.7686 11.1145 57.5184 8.58917 54.393 7.09269C54.393 7.09269 54.268 11.5665 57.9247 14.6842ZM71.0669 37.0067C71.0669 37.3341 71.3326 37.5991 71.6608 37.5991C71.9889 37.5991 72.2546 37.3341 72.2546 37.0067C72.2546 36.6794 71.9889 36.4144 71.6608 36.4144C71.3326 36.4144 71.0669 36.6794 71.0669 37.0067ZM63.2066 7.38887C65.0975 8.32417 66.6133 7.34211 66.6133 7.34211C68.7229 6.31328 70.2387 7.7474 70.2387 7.7474C71.7076 8.88535 71.4576 10.3974 71.4576 10.3974C71.4576 11.551 71.1294 11.6289 71.1294 11.6289C70.4262 12.1121 70.5981 11.3015 70.5981 11.3015L70.7544 10.7404C71.0357 8.13711 68.6917 7.76299 68.6917 7.76299C66.207 7.32652 65.5819 9.618 65.5819 9.618C65.4256 10.2415 65.41 10.8027 65.4725 11.3015L62.3628 8.19947L62.5034 10.8183L69.4417 17.7395H71.9264L69.4105 15.2298C70.7388 15.6507 71.9108 15.6819 71.9108 15.6819C75.4581 15.4636 75.8175 12.081 75.8175 12.081C76.7551 8.558 73.3953 5.70533 73.3953 5.70533C71.1607 3.78797 67.7697 3.63208 67.7697 3.63208C62.9566 3.0709 61.2532 0 61.2532 0C60.6907 1.40295 60.8313 3.46061 60.8313 3.46061C61.1438 6.64063 63.1753 7.38887 63.1753 7.38887M71.9264 36.0246C71.9264 36.0246 75.9582 30.9428 73.4891 25.4558C73.4891 25.4558 70.2543 29.4464 71.5514 34.5749C71.5514 34.5749 68.9573 30.2102 64.9724 29.992C64.9724 29.992 65.5819 33.4526 71.942 36.0402M67.8322 26.7028C68.1603 26.7028 68.426 26.4378 68.426 26.1105C68.426 25.7831 68.1603 25.5181 67.8322 25.5181C67.504 25.5181 67.2383 25.7831 67.2383 26.1105C67.2383 26.4378 67.504 26.7028 67.8322 26.7028ZM55.7682 17.0225L57.5809 15.1519C56.0339 14.7933 53.1429 14.2789 50.7832 16.0248C50.7832 16.0248 51.9865 17.3966 55.7526 17.0225M70.3012 30.3505C70.3012 30.3505 73.3953 24.6452 70.0043 19.6569C70.0043 19.6569 67.5196 24.1463 69.6761 28.9631C69.6761 28.9631 66.3632 25.1284 62.394 25.5805C62.394 25.5805 63.5973 28.8852 70.3012 30.3349M49.1268 73.9355C49.1268 74.2628 49.3924 74.5278 49.7206 74.5278C50.0487 74.5278 50.3144 74.2628 50.3144 73.9355C50.3144 73.6081 50.0487 73.3431 49.7206 73.3431C49.3924 73.3431 49.1268 73.6081 49.1268 73.9355ZM52.1271 73.3587C52.1271 73.3587 55.5182 70.4593 55.5494 66.8272L54.3305 66.874C53.2366 67.8404 51.6271 69.8669 50.7363 73.9822C50.7363 73.9822 56.4558 77.0687 61.4564 73.6861C61.4564 73.6861 56.9558 71.2075 52.1271 73.3587ZM46.5327 75.2293C46.5327 75.2293 50.8926 72.6417 51.127 68.6666C51.127 68.6666 47.6422 69.2746 45.0638 75.619C45.0638 75.619 50.1581 79.6408 55.6588 77.1779C55.6588 77.1779 51.6739 73.9511 46.5171 75.2449M40.6726 76.4764C45.2044 74.372 46.2202 70.849 46.2202 70.849C42.6885 71.0984 39.6725 76.3829 39.6725 76.3829C43.6261 80.4046 48.7517 79.9058 48.7517 79.9058C46.4077 76.8037 40.6882 76.4608 40.6882 76.4608M38.1567 74.6214V76.1179C37.4691 75.0267 34.7656 71.0984 31.734 70.9113C31.734 70.9113 32.7654 74.4187 37.3284 76.492C37.3284 76.492 31.609 76.8661 29.2806 79.9838C29.2806 79.9838 34.2656 80.4358 38.1567 76.5699V79.0017H39.6725V74.637H38.1567V74.6214ZM59.0811 60.8725V64.0525L73.3641 75.8684H76.2238L61.6752 60.8569H59.0655L59.0811 60.8725ZM57.3153 70.5528C57.3153 70.5528 58.6123 69.0096 59.253 66.8272L56.8152 66.7804C56.4245 67.9807 56.1432 69.4928 56.0651 71.4102C56.0651 71.4102 61.3314 73.1561 65.5506 70.1163L63.9254 68.8069C62.1283 68.7134 59.6593 68.9784 57.3153 70.5528ZM28.9524 74.1693C28.9524 73.842 28.6868 73.577 28.3586 73.577C28.0304 73.577 27.7648 73.842 27.7648 74.1693C27.7648 74.4967 28.0304 74.7617 28.3586 74.7617C28.6868 74.7617 28.9524 74.4967 28.9524 74.1693ZM68.9104 57.4898C68.9104 57.4898 69.7386 52.4859 66.832 49.758C66.832 49.758 65.0662 52.8133 68.2697 58.8616C68.2697 58.8616 74.6299 57.5521 76.2707 51.7533C76.2707 51.7533 71.2388 52.7353 68.9104 57.4898ZM63.0191 68.0587L60.9095 66.344C60.9563 66.874 61.0188 67.4507 61.1282 68.0431C61.1282 68.0431 61.8939 68.1366 63.0191 68.0431M59.8312 68.8381C60.1594 68.8381 60.425 68.5731 60.425 68.2457C60.425 67.9184 60.1594 67.6534 59.8312 67.6534C59.503 67.6534 59.2374 67.9184 59.2374 68.2457C59.2374 68.5731 59.503 68.8381 59.8312 68.8381ZM9.70007 60.1242C9.70007 60.4516 9.96572 60.7166 10.2939 60.7166C10.6221 60.7166 10.8877 60.4516 10.8877 60.1242C10.8877 59.7969 10.6221 59.5319 10.2939 59.5319C9.96572 59.5319 9.70007 59.7969 9.70007 60.1242ZM5.34016 48.5421C10.3095 43.8344 9.62193 40.3738 9.62193 40.3738C5.98086 42.0417 5.16826 47.03 5.16826 47.03C4.48068 41.7923 0.011383 39.2514 0.011383 39.2514C-0.285528 45.2685 5.32453 48.5421 5.32453 48.5421M5.35579 49.3683C5.35579 49.6956 5.62144 49.9762 5.94961 49.9762C6.27777 49.9762 6.54343 49.7112 6.54343 49.3683C6.54343 49.0253 6.27777 48.7759 5.94961 48.7759C5.62144 48.7759 5.35579 49.0409 5.35579 49.3683ZM13.8881 12.0186L9.24689 7.35769C6.37153 4.50503 2.9805 6.39122 2.9805 6.39122L12.1066 15.4636C12.7161 13.141 13.8881 12.0342 13.8881 12.0342M10.3251 14.8713L2.44918 7.01475C2.44918 7.01475 -0.848097 9.36859 1.71472 14.8713H10.3251ZM6.90285 54.2162C10.9815 48.7136 9.68444 45.44 9.68444 45.44C6.40279 47.7003 6.44967 52.7665 6.44967 52.7665C4.88698 47.7159 0.0582637 46.0012 0.0582637 46.0012C0.808355 51.9715 6.90285 54.2318 6.90285 54.2318M10.5595 69.789C10.5595 69.789 11.4972 69.2434 12.8411 69.0407L11.3409 68.6822L4.68383 75.6658C4.68383 75.6658 3.91811 76.757 4.63695 77.474C4.63695 77.474 5.3089 78.0196 6.23089 77.3961L12.7161 71.7375C12.0597 71.3946 10.6221 70.2099 10.5439 69.789M23.1861 66.9519H22.3266C22.2797 70.7087 25.9052 73.6705 25.9052 73.6705C21.0139 71.6284 16.5759 74.2161 16.5759 74.2161C21.639 77.4896 27.296 74.2784 27.296 74.2784C26.2021 69.711 24.2643 67.7469 23.1705 66.9675M9.43441 59.5319C12.4973 53.4212 10.6533 50.4127 10.6533 50.4127C7.80921 53.2186 8.74683 58.1913 8.74683 58.1913C6.30903 53.4836 1.26154 52.6262 1.26154 52.6262C3.043 58.3783 9.43441 59.5319 9.43441 59.5319ZM26.7959 68.9472C27.1241 72.9222 31.5465 75.4008 31.5465 75.4008C26.374 74.2317 22.4673 77.552 22.4673 77.552C28.0304 79.8902 33.031 75.7437 33.031 75.7437C30.2963 69.4772 26.8115 68.9472 26.8115 68.9472M12.5442 20.8884C19.3575 21.6678 21.5609 18.9087 21.5609 18.9087C17.9511 17.1939 13.5755 19.7816 13.5755 19.7816C17.1697 15.9001 16.2477 10.8651 16.2477 10.8651C11.4347 14.4972 12.5285 20.8884 12.5285 20.8884M12.8723 64.3331C14.8101 57.7704 12.4817 55.1359 12.4817 55.1359C10.1689 58.3783 11.966 63.1172 11.966 63.1172C8.76245 58.9083 3.6212 58.9395 3.6212 58.9395C6.37153 64.3019 12.8723 64.3331 12.8723 64.3331ZM62.644 58.9707C62.644 58.9707 62.2221 59.4072 62.0815 60.093L63.3472 61.4025C63.2691 60.5763 63.066 59.7501 62.644 58.9707ZM20.2951 32.7355L22.6235 34.7932H27.8898C27.6398 34.3723 27.7179 32.7823 27.7179 32.7823L20.2951 32.7355ZM33.3592 17.3654V14.4348H42.5166V18.6281H45.5482V21.6522H42.6103V22.9928H45.5482V26.2663H42.6103V36.0714H40.0944L36.6096 32.5796L33.4217 35.7596L31.1089 33.4526L36.4065 28.1681L39.1412 30.8961V17.3498H33.3748L33.3592 17.3654ZM28.6399 31.4261C28.6399 38.3785 33.0154 41.6053 38.4067 41.6053C43.798 41.6053 48.1891 38.4097 48.1891 31.4261V11.5821H28.6399C28.6399 11.5821 28.6399 24.4737 28.6399 31.4261ZM21.4359 19.9687C21.4359 19.9687 20.8421 20.826 18.5918 21.3093L21.4359 23.9281V19.9687ZM46.4389 48.9474C47.0796 48.9474 47.0796 48.4641 47.0796 47.9809V43.4447H48.3767V48.2459C48.3767 48.9474 48.2985 50.1321 46.4233 50.1321C45.2044 50.1321 44.4856 49.5709 44.4856 48.3394V43.4603H45.7826V47.7159C45.7826 48.2147 45.7201 48.963 46.4233 48.963M49.7831 51.4415V52.6574H48.4548V54.0915H49.6112V55.3074H48.4548V56.7883H49.7831V58.0198H47.1421V51.4415H49.7675H49.7831ZM49.4393 43.4447H50.9082L51.2833 44.3644C51.3927 44.6918 51.5333 45.0191 51.5958 45.3621H51.6114C51.6739 45.0191 51.7833 44.6918 51.9083 44.3644L52.299 43.4447H53.7054L52.299 46.6247L53.8148 50.023H52.299L51.8771 48.9786C51.7521 48.6512 51.6739 48.3238 51.5958 47.9965H51.5802C51.4864 48.3238 51.4083 48.6512 51.2833 48.9786L50.8926 50.023H49.4237L50.8145 46.6247L49.4237 43.4447H49.4393ZM53.3929 58.0198L53.1585 56.913H51.8302L51.5958 58.0198H50.2988L51.8302 51.4415H53.2054L54.7837 58.0198H53.3929ZM45.0638 58.0198L44.7512 53.2809H44.7356L44.5324 54.9021L43.9699 58.0198H42.9698L42.3291 54.8709L42.1103 53.4056V53.2809H42.0946L41.9071 58.0198H40.5163L41.0945 51.4415H42.8135L43.4542 55.323H43.4698L44.0011 51.4415H45.7513L46.4389 58.0198H45.095H45.0638ZM40.8289 43.4447H42.1259V48.8071H43.4854V50.023H40.8132V43.4447H40.8289ZM39.1568 42.4159V64.7228C39.1568 64.7228 40.4226 63.4601 42.1884 63.4601H56.0651V35.7908H48.5798C48.5798 35.7908 46.4546 42.3223 39.1724 42.4159M33.5624 45.2841C33.5624 44.8165 33.328 44.4268 32.6716 44.4579H32.4997V46.2038H32.7341C33.328 46.2038 33.5624 45.8141 33.5624 45.2685M52.4865 53.1406H52.4709L52.3303 54.1383L52.049 55.8842H52.971L52.6428 54.1383L52.5022 53.1406H52.4865ZM17.3885 23.8346C17.1541 24.0216 15.482 25.5337 12.9505 25.8455L13.8099 26.6561L22.8892 26.6093L20.0763 23.8034L18.6543 22.3693C18.6543 22.3693 17.6385 23.6631 17.3885 23.819M68.0197 59.4227C68.0197 59.0954 67.754 58.8304 67.4102 58.8304C67.0665 58.8304 66.8164 59.0954 66.8164 59.4227C66.8164 59.7501 67.0821 60.0151 67.4102 60.0151C67.7384 60.0151 68.0197 59.7501 68.0197 59.4227ZM71.5201 49.2124C71.8483 49.2124 72.1139 48.9474 72.1139 48.62C72.1139 48.2927 71.8483 48.0277 71.5201 48.0277C71.192 48.0277 70.9263 48.2927 70.9263 48.62C70.9263 48.9474 71.192 49.2124 71.5201 49.2124ZM67.6759 44.7541C67.6759 44.7541 66.4726 48.0588 70.6763 53.468C70.6763 53.468 76.7239 51.083 77.3333 45.0815C77.3333 45.0815 72.5359 46.9209 71.0826 52.0027C71.0826 52.0027 71.0201 46.9365 67.6759 44.7541ZM72.2546 46.2506C72.2546 46.2506 71.317 41.2623 67.6446 39.7035C67.6446 39.7035 67.0352 43.1797 72.1139 47.7627C72.1139 47.7627 77.6459 44.3644 77.2083 38.3629C77.2083 38.3629 72.8015 40.9973 72.2546 46.2662M65.1287 54.5124C65.1287 54.5124 62.8628 57.2092 64.9568 63.7251C64.9568 63.7251 71.4576 63.5381 74.0829 58.1133C74.0829 58.1133 68.9573 58.2069 65.8319 62.4936C65.8319 62.4936 67.504 57.708 65.1287 54.5124ZM72.4109 40.3738C72.4109 40.3738 70.6138 35.6349 66.7227 34.7152C66.7227 34.7152 66.7227 38.2382 72.5202 41.8859C72.5202 41.8859 77.3802 37.5835 75.8957 31.7379C75.8957 31.7379 72.0202 35.1049 72.3952 40.3738M68.2385 66.4531C69.2386 65.8295 70.1918 64.9878 70.9732 63.8498C70.9732 63.8498 68.801 63.5692 66.2695 64.4266L68.2385 66.4687V66.4531ZM30.4057 54.0915L30.2651 53.0939H30.2495L30.1088 54.0915L29.8275 55.8374H30.7495L30.4213 54.0915H30.4057ZM11.1065 15.2298C6.99661 19.6413 9.18438 25.7363 9.18438 25.7363C16.029 25.3155 17.7167 22.229 17.7167 22.229C13.8568 21.169 10.0126 24.4737 10.0126 24.4737C12.8723 20.0154 11.0909 15.2298 11.0909 15.2298M36.7659 68.0431H40.7039C40.7039 68.0431 40.9539 66.344 42.079 66.344H58.456V37.5991L56.8308 35.8844V64.3642H42.1728C42.1728 64.3642 40.2038 64.5357 38.6567 66.4219C38.6567 66.4219 37.4535 64.6292 34.8906 64.4578H20.5764V36.1494L18.8262 37.8952V66.344H34.8125C34.8125 66.344 36.7815 66.4219 36.7815 68.0431M6.1215 37.7861C6.1215 37.4588 5.85585 37.1938 5.52768 37.1938C5.19952 37.1938 4.93386 37.4588 4.93386 37.7861C4.93386 38.1135 5.19952 38.3785 5.52768 38.3785C5.85585 38.3785 6.1215 38.1135 6.1215 37.7861ZM5.59019 35.3388C6.76221 30.179 3.43368 26.2663 3.43368 26.2663C1.08964 31.8158 5.2464 36.8041 5.2464 36.8041C11.5284 34.0761 12.0597 30.5843 12.0597 30.5843C8.07487 30.9117 5.59019 35.3232 5.59019 35.3232M1.16777 32.6108C-0.17614 38.4876 4.77759 42.6809 4.77759 42.6809C10.497 38.9085 10.4189 35.3855 10.4189 35.3855C6.54343 36.3988 4.87135 41.1688 4.87135 41.1688C5.12138 35.8844 1.16777 32.6108 1.16777 32.6108ZM7.68419 20.904C7.68419 20.904 7.3404 18.7684 9.57505 15.5883H2.04288C2.04288 15.5883 2.35542 16.4613 7.68419 20.904ZM27.5616 32.0029V31.1923L23.6549 27.2952H14.4975L19.67 32.0184H27.5616V32.0029ZM18.123 65.0034C18.1542 65.2684 18.2011 64.941 18.2011 64.941V61.0595L17.5604 61.7766C17.9198 62.7586 18.0605 64.1616 18.123 65.019M8.49679 26.7808C8.49679 27.1081 8.76245 27.3731 9.09062 27.3731C9.41878 27.3731 9.68444 27.1081 9.68444 26.7808C9.68444 26.4534 9.41878 26.1884 9.09062 26.1884C8.76245 26.1884 8.49679 26.4534 8.49679 26.7808ZM18.0761 69.3525C18.4043 69.3525 18.6699 69.0875 18.6699 68.7602C18.6699 68.4328 18.4043 68.1678 18.0761 68.1678C17.7479 68.1678 17.4823 68.4328 17.4823 68.7602C17.4823 69.0875 17.7479 69.3525 18.0761 69.3525ZM22.2641 24.8166L27.5616 30.0075V25.9858L22.2641 20.7013V24.8166ZM18.1386 55.7127H15.607V58.8927H18.1386V55.7127ZM53.2366 21.4963L49.1111 25.9702L49.158 33.1096C49.158 33.1096 49.033 34.2788 48.783 34.8711H51.4239L58.9873 27.3264L53.2366 21.4963ZM30.9214 43.3979V44.6138H29.6087V46.0479H30.7651V47.2638H29.6087V48.7447H30.937V49.9606H28.2961V43.3979L26.4677 49.9606H25.4051L23.4986 43.3823H24.8894L25.6708 46.5468C25.7802 46.9209 25.827 47.295 25.9052 47.6691H25.9208C25.9989 47.2794 26.0146 46.9053 26.1239 46.5312L26.9209 43.3823H30.9058L30.9214 43.3979ZM32.5622 57.973H31.1714L30.9214 56.8663H29.6087L29.3743 57.973H28.0773L29.6087 51.3947H30.9839L32.5622 57.973ZM31.1871 43.3979H32.4997C33.328 43.3979 34.8125 43.4915 34.8125 45.2841C34.8125 46.0012 34.5312 46.6247 33.8749 46.9832L35.0313 49.9762H33.6561L32.5154 46.9365H32.4997V49.9762H31.2027V43.3979H31.1871ZM35.2969 43.3979H36.594V49.9762H35.2969V43.3979ZM34.3281 58.0821C33.953 58.0821 33.4998 57.973 33.2029 57.7548V56.5233C33.5155 56.726 33.8124 56.8818 34.1874 56.8818C34.6094 56.8818 34.9375 56.6013 34.9375 56.1648C34.9375 55.666 34.5312 55.4633 34.1718 55.1983C33.4217 54.6995 32.9529 54.2006 32.9529 53.2498C32.9529 52.2053 33.5624 51.3168 34.6719 51.3168C35.0938 51.3168 35.4688 51.4259 35.8283 51.6442V52.9068C35.5626 52.673 35.2344 52.4859 34.8906 52.4859C34.4843 52.4859 34.2343 52.7353 34.2343 53.1251C34.2343 54.2007 36.2189 54.263 36.2189 56.0401C36.2189 57.2092 35.547 58.0977 34.3281 58.0977M27.8429 52.6262H26.8115V57.9886H25.5145V52.6262H24.4831V51.4103H27.8429V52.6262ZM21.3421 35.8064V63.4757H35.0782C36.6409 63.5225 38.2348 64.7384 38.2348 64.7384V42.6029C29.9057 42.4159 28.2336 35.8064 28.2336 35.8064H21.3421ZM21.9359 71.8155C21.8109 69.711 21.4202 68.1678 20.9514 66.9363H18.5136C19.17 69.2434 20.6702 70.9893 20.6702 70.9893C16.2165 68.121 11.3878 69.9137 11.3878 69.9137C15.8102 74.0134 21.9359 71.8155 21.9359 71.8155ZM13.6693 27.4822L12.4504 26.3443C9.49692 27.0925 7.3404 29.7114 7.3404 29.7114C8.7312 26.3911 7.98111 23.289 7.3404 21.6366L6.44967 20.904C3.88686 25.7675 6.73095 31.0987 6.73095 31.0987C10.6846 30.1478 12.6848 28.589 13.6693 27.4822ZM7.02786 64.7695C10.6689 69.5707 17.076 68.4796 17.076 68.4796C17.8573 61.6831 15.0913 59.4851 15.0913 59.4851C13.3724 63.086 15.9665 67.4351 15.9665 67.4351C12.0754 63.8498 7.02786 64.7695 7.02786 64.7695ZM18.0605 40.6544H15.5289V43.8344H18.0605V40.6544Z" fill="#B2A9AB"/>
</svg>
