<svg width="277" height="64" viewBox="0 0 277 64" fill="none" xmlns="http://www.w3.org/2000/svg">
<path d="M32.2548 63.9884C50.0741 63.9884 64.5211 49.6608 64.5211 31.9884C64.5211 14.3161 50.0741 0 32.2548 0C14.4353 0 0 14.3277 0 32C0 49.6724 14.4469 64 32.2548 64" fill="#B2A9AB"/>
<path d="M30.9761 17.9609V46.0028H39.9732V43.5031H33.555V17.9609H30.9761Z" fill="white"/>
<path d="M21.9588 25.6106C24.0943 25.6106 25.8332 23.8863 25.8332 21.7682C25.8332 19.6504 24.106 17.9375 21.9588 17.9375C19.8116 17.9375 18.0962 19.6504 18.0962 21.7682C18.0962 23.8863 19.8233 25.6106 21.9588 25.6106Z" fill="white"/>
<path d="M33.5488 5.2341C33.2103 5.21096 32.5684 5.21094 32.2533 5.21094C17.3747 5.21094 5.25 17.2356 5.25 31.9915C5.25 39.1437 8.06238 45.8677 13.162 50.9251C18.2616 55.9829 25.0533 58.7718 32.2533 58.7718C39.4535 58.7718 46.257 55.9944 51.3566 50.9251C56.4443 45.8677 59.2569 39.1437 59.2569 31.9915V30.7646H58.1716H39.967V33.253H56.6779V33.6232C55.8142 46.2497 45.1948 56.2605 32.2417 56.2605C25.7184 56.2605 19.5686 53.7259 14.9474 49.143C10.3146 44.5601 7.77064 38.4609 7.77064 31.9799C7.77064 25.4989 10.3146 19.3997 14.9474 14.8052C19.5686 10.2222 25.7184 7.69918 32.2417 7.69918C32.5334 7.69918 33.2337 7.69918 33.537 7.72235V5.22253L33.5488 5.2341Z" fill="white"/>
<path d="M185.704 28.6807H169.914V11.4877H161.061V53.3143H169.914V35.9526H185.704V53.3143H194.622V11.4877H185.704V28.6807ZM267.633 28.6807H251.842V11.4877H242.99V53.3143H251.842V35.9526H267.633V53.3143H276.551V11.4877H267.633V28.6807ZM230.849 44.6009C234.007 40.7961 236.13 35.6668 237.217 31.1218L229.633 29.6806C229.063 32.3816 227.743 35.9006 225.957 38.6147L220.961 33.0307C226.19 31.3556 230.603 27.2131 230.603 21.2788C230.603 14.0718 225.206 10.9033 218.256 10.9033C210.736 10.9033 205.442 14.825 205.442 22.1359C205.442 24.9017 206.931 28.356 208.6 30.5505C203.086 33.4854 200.679 37.4068 200.679 42.7701C200.679 50.5485 205.843 54.1195 214.463 54.1195C218.308 54.1195 222.449 52.8469 225.543 50.6004L228.067 53.4312H238.46L230.823 44.614L230.849 44.6009ZM218.463 17.2663C220.715 17.2663 222.203 18.7466 222.203 21.5125C222.203 24.5901 219.356 26.2524 216.211 27.4859C215.15 25.7588 214.308 23.8499 214.308 21.7593C214.308 18.6168 216.03 17.2663 218.463 17.2663ZM215.162 46.9643C211.888 46.9643 209.765 45.2892 209.765 41.4844C209.765 39.1211 211.668 37.2771 213.441 36.42L220.857 45.0037C219.071 46.4449 217.013 46.9643 215.175 46.9643H215.162ZM87.7774 11.4097H78.0962V53.4701H107.839V45.2761H87.7774V11.4097ZM129.143 37.446H137.025V44.7959C135.576 45.3542 132.741 45.8996 130.036 45.8996C121.326 45.8996 118.413 41.4585 118.413 32.4336C118.413 23.4084 121.183 18.7596 129.894 18.7596C134.735 18.7596 137.504 20.2919 139.782 23.2007L145.801 17.6428C142.138 12.3707 135.693 10.7734 129.674 10.7734C116.11 10.7734 108.991 18.2012 108.991 32.3555C108.991 46.5099 115.424 54.0806 129.609 54.0806C136.107 54.0806 142.475 52.4183 145.93 49.99V29.5767H129.117V37.4199L129.143 37.446Z" fill="#B2A9AB"/>
</svg>
