<svg width="32" height="24" viewBox="0 0 32 24" fill="none" xmlns="http://www.w3.org/2000/svg">
<mask id="mask0_21_251" style="mask-type:luminance" maskUnits="userSpaceOnUse" x="0" y="0" width="32" height="24">
<path d="M0 0H32V23.9988H0V0Z" fill="white"/>
</mask>
<g mask="url(#mask0_21_251)">
<path fill-rule="evenodd" clip-rule="evenodd" d="M33.1108 23.9988H-1.1156V0H33.1108V23.9988Z" fill="white"/>
<path fill-rule="evenodd" clip-rule="evenodd" d="M16.2976 12.0154C16.2976 13.4139 15.742 14.7552 14.7531 15.7441C13.7642 16.733 12.4229 17.2885 11.0244 17.2885C9.62587 17.2885 8.28461 16.733 7.2957 15.7441C6.30679 14.7552 5.75122 13.4139 5.75122 12.0154C5.75122 10.6168 6.30679 9.27558 7.2957 8.28667C8.28461 7.29775 9.62587 6.74219 11.0244 6.74219C12.4229 6.74219 13.7642 7.29775 14.7531 8.28667C15.742 9.27558 16.2976 10.6168 16.2976 12.0154Z" fill="white"/>
<path fill-rule="evenodd" clip-rule="evenodd" d="M22.9113 12.3309C22.9113 16.1276 19.8646 19.2118 16.1007 19.2118C12.3368 19.2118 9.2948 16.1276 9.2948 12.3309C9.2948 8.53422 12.3415 5.44531 16.1054 5.44531C19.8693 5.44531 22.9113 8.53422 22.9113 12.3309Z" fill="#C70000"/>
<path fill-rule="evenodd" clip-rule="evenodd" d="M2.17493 5.94665L6.09349 1.41406L7.02625 2.21559L3.10301 6.75286L2.17493 5.94665ZM3.45924 7.05754L7.3778 2.52495L8.31056 3.32178L4.38732 7.86375L3.45924 7.05754Z" fill="black"/>
<path fill-rule="evenodd" clip-rule="evenodd" d="M2.17493 5.94665L6.09349 1.41406L7.02625 2.21559L3.10301 6.75286L2.17493 5.94665Z" fill="black"/>
<path fill-rule="evenodd" clip-rule="evenodd" d="M2.17493 5.94665L6.09349 1.41406L7.02625 2.21559L3.10301 6.75286L2.17493 5.94665ZM4.77168 8.19654L8.69023 3.65458L9.623 4.46079L5.69975 8.99807L4.77168 8.19654Z" fill="black"/>
<path fill-rule="evenodd" clip-rule="evenodd" d="M2.17493 5.94665L6.09349 1.41406L7.02625 2.21559L3.10301 6.75286L2.17493 5.94665Z" fill="black"/>
<path fill-rule="evenodd" clip-rule="evenodd" d="M2.17493 5.94353L6.09349 1.41094L7.02625 2.21246L3.10301 6.74974L2.17493 5.94353ZM26.0238 1.40625L29.9142 5.97165L28.9767 6.76849L25.0863 2.20309L26.0238 1.40625ZM23.413 3.6327L27.3034 8.19811L26.3659 8.99494L22.4755 4.42954L23.413 3.6327Z" fill="black"/>
<path fill-rule="evenodd" clip-rule="evenodd" d="M24.0644 6.26391L27.7392 3.08594L28.4283 3.88277L24.491 7.41698L24.0551 6.26391H24.0644Z" fill="white"/>
<path fill-rule="evenodd" clip-rule="evenodd" d="M28.5923 17.4555L24.8237 21.9459L23.9004 21.1772L27.6689 16.6868L28.5923 17.4555ZM24.73 2.50781L28.6204 7.07322L27.6877 7.87005L23.8019 3.29996L24.73 2.50781ZM29.8719 18.5195L26.0987 23.0099L25.1706 22.2412L28.9439 17.7508L29.8719 18.5195ZM27.2892 16.3728L23.5207 20.8632L22.5973 20.0945L26.3659 15.604L27.2892 16.3728Z" fill="black"/>
<path fill-rule="evenodd" clip-rule="evenodd" d="M9.39329 11.1142C9.60891 12.8485 9.92296 14.7796 12.59 14.9765C13.5884 15.0374 15.5336 14.7421 16.1992 12.0141C17.0804 9.39862 19.7147 8.64866 21.5099 10.0642C22.5364 10.7298 22.8176 11.7844 22.8833 12.5813C22.8036 15.1124 21.3411 17.3154 19.4709 18.2997C17.3148 19.5794 14.3337 19.6075 11.7229 17.667C10.5464 16.5655 8.90113 14.5265 9.39329 11.1142Z" fill="#3D5897"/>
<path fill-rule="evenodd" clip-rule="evenodd" d="M24.9269 17.3906L28.6111 20.5592L27.9267 21.3561L23.8441 17.9906L24.9222 17.3906H24.9269Z" fill="white"/>
<path fill-rule="evenodd" clip-rule="evenodd" d="M4.40132 16.7578L8.29176 21.3185L7.3543 22.1154L3.46387 17.5546L4.40132 16.7578Z" fill="black"/>
<path fill-rule="evenodd" clip-rule="evenodd" d="M3.73108 20.5186L7.41527 17.3359L8.1043 18.1328L4.167 21.6717L3.73108 20.5139V20.5186Z" fill="white"/>
<path fill-rule="evenodd" clip-rule="evenodd" d="M5.69499 15.6641L9.58543 20.2248L8.64797 21.0216L4.75754 16.4609L5.69499 15.6641ZM3.08418 17.8905L6.97462 22.4512L6.03716 23.2481L2.14673 18.6874L3.08418 17.8905Z" fill="black"/>
</g>
</svg>
