<svg width="32" height="18" viewBox="0 0 32 18" fill="none" xmlns="http://www.w3.org/2000/svg">
<path fill-rule="evenodd" clip-rule="evenodd" d="M0 0.578125H32V1.87418H0V0.578125ZM0 3.17023H32V4.46628H0V3.17023ZM0 5.75905H32V7.05839H0V5.75905ZM0 8.35115H32V9.6472H0V8.35115ZM0 10.9433H32V12.2393H0V10.9433ZM0 13.5321H32V14.8281H0V13.5321ZM0 16.1242H32V17.4202H0V16.1242Z" fill="#BD3D44"/>
<path fill-rule="evenodd" clip-rule="evenodd" d="M0 1.875H32V3.17105H0V1.875ZM0 4.4671H32V5.75987H0V4.4671ZM0 7.05592H32V8.35197H0V7.05592ZM0 9.64803H32V10.9441H0V9.64803ZM0 12.2401H32V13.5362H0V12.2401ZM0 14.8289H32V16.125H0V14.8289Z" fill="white"/>
<path fill-rule="evenodd" clip-rule="evenodd" d="M0 0.578125H12.7993V9.6472H0V0.578125Z" fill="#192F5D"/>
<path fill-rule="evenodd" clip-rule="evenodd" d="M1.06581 0.96875L1.18423 1.3273H1.55923L1.2566 1.5477L1.37173 1.90954L1.06581 1.68586L0.763177 1.90625L0.878309 1.5477L0.572388 1.3273H0.953967L1.06581 0.96875ZM3.20068 0.96875L3.31581 1.3273H3.6941L3.38818 1.5477L3.50331 1.90954L3.20068 1.68586L2.89476 1.90625L3.00989 1.5477L2.70726 1.3273H3.08226L3.20068 0.96875ZM5.33226 0.96875L5.45068 1.3273H5.82239L5.51976 1.5477L5.63489 1.90954L5.32897 1.68586L5.02634 1.90625L5.14147 1.5477L4.83555 1.3273H5.21384L5.33226 0.96875ZM7.46712 0.96875L7.58226 1.3273H7.96055L7.65462 1.5477L7.77305 1.90954L7.46712 1.68586L7.1612 1.90625L7.27962 1.5477L6.9737 1.3273H7.3487L7.46712 0.96875ZM9.5987 0.96875L9.71712 1.3273H10.0921L9.78949 1.5477L9.90462 1.90954L9.5987 1.68586L9.29607 1.90625L9.4112 1.5477L9.10857 1.3273H9.48357L9.5987 0.96875ZM11.7336 0.96875L11.8487 1.3273H12.227L11.9211 1.5477L12.0395 1.90954L11.7336 1.68586L11.4277 1.90625L11.5461 1.5477L11.2402 1.3273H11.6184L11.7336 0.96875ZM2.13489 1.87664L2.25002 2.2352H2.62831L2.32239 2.45559L2.43423 2.81414L2.13818 2.59375L1.83226 2.81414L1.94081 2.45559L1.64476 2.2352H2.01976L2.13489 1.87664ZM4.26647 1.87664L4.38489 2.2352H4.75989L4.45397 2.45559L4.57239 2.81414L4.26647 2.59375L3.96055 2.81414L4.07897 2.45559L3.77305 2.2352H4.15134L4.26647 1.87664ZM6.40134 1.87664L6.51647 2.2352H6.89476L6.58884 2.45559L6.70397 2.81414L6.40134 2.59375L6.09541 2.81414L6.21055 2.45559L5.90791 2.2352H6.28291L6.40134 1.87664ZM8.53291 1.87664L8.65134 2.2352H9.02634L8.72042 2.45559L8.83884 2.81414L8.53291 2.59375L8.23028 2.81414L8.34541 2.45559L8.03949 2.2352H8.42107L8.53291 1.87664ZM10.6678 1.87664L10.7829 2.2352H11.1612L10.8553 2.45559L10.9704 2.81414L10.6678 2.59375L10.3619 2.81414L10.477 2.45559L10.1744 2.2352H10.5494L10.6678 1.87664ZM1.06581 2.78125L1.18423 3.14638H1.55923L1.2566 3.36678L1.37173 3.72533L1.06581 3.50164L0.763177 3.72533L0.878309 3.36349L0.572388 3.14309H0.953967L1.06581 2.78125ZM3.20068 2.78125L3.31581 3.14309H3.6941L3.38818 3.36349L3.50331 3.72204L3.20068 3.49835L2.89476 3.72204L3.00989 3.3602L2.70726 3.1398H3.08226L3.20068 2.78125ZM5.33226 2.78125L5.45068 3.14309H5.82239L5.51976 3.36349L5.63489 3.72204L5.32897 3.49835L5.02634 3.72204L5.14147 3.3602L4.83555 3.1398H5.21384L5.33226 2.78125ZM7.46712 2.78125L7.58226 3.14309H7.96055L7.65462 3.36349L7.77305 3.72204L7.46712 3.49835L7.1612 3.72204L7.27962 3.3602L6.9737 3.1398H7.3487L7.46712 2.78125ZM9.5987 2.78125L9.71712 3.14309H10.0921L9.78949 3.36349L9.90462 3.72204L9.5987 3.49835L9.29607 3.72204L9.4112 3.3602L9.10857 3.1398H9.48357L9.5987 2.78125ZM11.7336 2.78125L11.8487 3.14309H12.227L11.9211 3.36349L12.0395 3.72204L11.7336 3.49835L11.4277 3.72204L11.5461 3.3602L11.2402 3.1398H11.6184L11.7336 2.78125ZM2.13489 3.68914L2.25002 4.0477H2.62831L2.32239 4.26809L2.43752 4.62993L2.13489 4.40625L1.82897 4.62664L1.9441 4.26809L1.64147 4.0477H2.01647L2.13489 3.68914ZM4.26647 3.68914L4.38489 4.0477H4.75989L4.45397 4.26809L4.57239 4.62993L4.26647 4.40625L3.96055 4.62664L4.07897 4.26809L3.77305 4.0477H4.15134L4.26647 3.68914ZM6.40134 3.68914L6.51647 4.0477H6.89476L6.58884 4.26809L6.70397 4.62993L6.40134 4.40625L6.09541 4.62664L6.21055 4.26809L5.90791 4.0477H6.28291L6.40134 3.68914ZM8.53291 3.68914L8.65134 4.0477H9.02634L8.7237 4.26809L8.83884 4.62993L8.53291 4.40625L8.23028 4.62664L8.34541 4.26809L8.03949 4.0477H8.42107L8.53291 3.68914ZM10.6678 3.68914L10.7829 4.0477H11.1612L10.8553 4.26809L10.9704 4.62993L10.6678 4.40625L10.3619 4.62664L10.477 4.26809L10.1744 4.0477H10.5494L10.6678 3.68914ZM1.06581 4.59704L1.18423 4.95559H1.55923L1.2566 5.17599L1.37173 5.53783L1.06581 5.31414L0.763177 5.53454L0.878309 5.17599L0.572388 4.95559H0.953967L1.06581 4.59704ZM3.20068 4.59704L3.31581 4.95559H3.6941L3.38818 5.17599L3.50331 5.53454L3.20068 5.31414L2.89476 5.53454L3.00989 5.17599L2.70726 4.95559H3.08226L3.20068 4.59704ZM5.33226 4.59704L5.45068 4.95559H5.82239L5.51976 5.17599L5.63489 5.53783L5.32897 5.31414L5.02634 5.53454L5.14147 5.17599L4.83555 4.95559H5.21384L5.33226 4.59704ZM7.46712 4.59704L7.58226 4.95559H7.96055L7.65462 5.17599L7.77305 5.53783L7.46712 5.31414L7.1612 5.53454L7.27962 5.17599L6.9737 4.95559H7.3487L7.46712 4.59704ZM9.5987 4.59704L9.71712 4.95559H10.0921L9.78949 5.17599L9.90462 5.53783L9.5987 5.31414L9.29607 5.53454L9.4112 5.17599L9.10857 4.95559H9.48357L9.5987 4.59704ZM11.7336 4.59704L11.8487 4.95559H12.227L11.9211 5.17599L12.0395 5.53783L11.7336 5.31414L11.4277 5.53454L11.5461 5.17599L11.2402 4.95559H11.6184L11.7336 4.59704ZM2.13489 5.50493L2.25002 5.86349H2.62831L2.32239 6.08388L2.43752 6.44243L2.13489 6.21875L1.82897 6.44243L1.9441 6.08059L1.64147 5.8602H2.01647L2.13489 5.50493ZM4.26647 5.50493L4.38489 5.86349H4.75989L4.45397 6.08388L4.57239 6.44243L4.26647 6.21875L3.96055 6.44243L4.07897 6.08059L3.77305 5.8602H4.15134L4.26647 5.50493ZM6.40134 5.50493L6.51647 5.86349H6.89476L6.58884 6.08388L6.70397 6.44243L6.40134 6.21875L6.09541 6.44243L6.21055 6.08059L5.90791 5.8602H6.28291L6.40134 5.50493ZM8.53291 5.50493L8.65134 5.86349H9.02634L8.7237 6.08388L8.83884 6.44243L8.53291 6.21875L8.23028 6.44243L8.34541 6.08059L8.03949 5.8602H8.42107L8.53291 5.50493ZM10.6678 5.50493L10.7829 5.86349H11.1612L10.8553 6.08388L10.9704 6.44243L10.6678 6.21875L10.3619 6.44243L10.477 6.08059L10.1744 5.8602H10.5494L10.6678 5.50493ZM1.06581 6.40954L1.18423 6.77138H1.55923L1.2566 6.99178L1.37173 7.34704L1.06581 7.12664L0.763177 7.34704L0.878309 6.98849L0.572388 6.76809H0.953967L1.06581 6.40954ZM3.20068 6.40954L3.31581 6.77138H3.6941L3.38818 6.99178L3.5066 7.34704L3.20068 7.12664L2.89476 7.34704L3.01318 6.98849L2.70726 6.76809H3.08226L3.20068 6.40954ZM5.33226 6.40954L5.45068 6.77138H5.82239L5.51976 6.99178L5.63489 7.34704L5.32897 7.12664L5.02634 7.34704L5.14147 6.98849L4.83555 6.76809H5.21384L5.33226 6.40954ZM7.46712 6.40954L7.58226 6.77138H7.96055L7.65462 6.99178L7.77305 7.34704L7.46712 7.12664L7.1612 7.34704L7.27962 6.98849L6.9737 6.76809H7.3487L7.46712 6.40954ZM9.5987 6.40954L9.71712 6.77138H10.0921L9.78949 6.99178L9.90462 7.34704L9.5987 7.12664L9.29607 7.34704L9.4112 6.98849L9.10857 6.76809H9.48357L9.5987 6.40954ZM11.7336 6.40954L11.8487 6.77138H12.227L11.9211 6.99178L12.0395 7.34704L11.7336 7.12664L11.4277 7.34704L11.5461 6.98849L11.2402 6.76809H11.6184L11.7336 6.40954ZM2.13489 7.31743L2.25002 7.67599H2.62831L2.32239 7.89638L2.43752 8.25822L2.13489 8.03454L1.82897 8.25493L1.9441 7.89638L1.64147 7.67599H2.01647L2.13489 7.31743ZM4.26647 7.31743L4.38489 7.67599H4.75989L4.45397 7.89638L4.57239 8.25822L4.26647 8.03454L3.96055 8.25493L4.07897 7.89638L3.77305 7.67599H4.15134L4.26647 7.31743ZM6.40134 7.31743L6.51647 7.67599H6.89476L6.58884 7.89638L6.70397 8.25822L6.40134 8.03454L6.09541 8.25493L6.21055 7.89638L5.90791 7.67599H6.28291L6.40134 7.31743ZM8.53291 7.31743L8.65134 7.67599H9.02634L8.7237 7.89638L8.83884 8.25822L8.53291 8.03454L8.23028 8.25493L8.34541 7.89638L8.03949 7.67599H8.42107L8.53291 7.31743ZM10.6678 7.31743L10.7829 7.67599H11.1612L10.8553 7.89638L10.9704 8.25822L10.6678 8.03454L10.3619 8.25493L10.477 7.89638L10.1744 7.67599H10.5494L10.6678 7.31743ZM1.06581 8.22533L1.18423 8.58388H1.55923L1.2566 8.80428L1.37173 9.16283L1.06581 8.94243L0.763177 9.16283L0.878309 8.80099L0.572388 8.58059H0.953967L1.06581 8.22533ZM3.20068 8.22533L3.31581 8.58388H3.6941L3.38818 8.80428L3.5066 9.16283L3.20068 8.94243L2.89476 9.16283L3.01318 8.80099L2.70726 8.58059H3.08226L3.20068 8.22533ZM5.33226 8.22533L5.45068 8.58388H5.82239L5.52634 8.80428L5.64147 9.16283L5.33555 8.94243L5.03291 9.16283L5.14805 8.80099L4.84212 8.58059H5.22041L5.33226 8.22533ZM7.46712 8.22533L7.58226 8.58388H7.96055L7.65462 8.80428L7.77305 9.16283L7.46712 8.94243L7.1612 9.16283L7.27962 8.80099L6.9737 8.58059H7.3487L7.46712 8.22533ZM9.5987 8.22533L9.71712 8.58388H10.0921L9.78949 8.80428L9.90462 9.16283L9.5987 8.94243L9.29607 9.16283L9.4112 8.80099L9.10857 8.58059H9.48357L9.5987 8.22533ZM11.7336 8.22533L11.8487 8.58388H12.227L11.9211 8.80428L12.0395 9.16283L11.7336 8.94243L11.4277 9.16283L11.5461 8.80099L11.2402 8.58059H11.6184L11.7336 8.22533Z" fill="white"/>
</svg>
