<svg width="120" height="45" viewBox="0 0 120 45" fill="none" xmlns="http://www.w3.org/2000/svg">
<g clip-path="url(#clip0_997_1162)">
<path fill-rule="evenodd" clip-rule="evenodd" d="M37.7767 21.3121C39.7795 22.8555 40.79 24.895 40.79 27.4306C40.79 29.5436 40.0367 31.3626 38.53 32.8693C37.0234 34.376 35.2043 35.1293 33.0914 35.1293H26.9912V31.6566H33.0914C34.2673 31.6566 35.2595 31.2524 36.0863 30.4256C36.9315 29.5987 37.3541 28.6066 37.3541 27.4306C37.3541 26.2547 36.9315 25.2441 36.0863 24.4173C35.2595 23.5905 34.2673 23.1862 33.0914 23.1862H29.6554V19.7136H33.0914C34.0468 19.7136 34.8369 19.3828 35.5167 18.7214C36.1782 18.0599 36.5089 17.2515 36.5089 16.296C36.5089 15.3406 36.1782 14.5505 35.5167 13.889C34.8552 13.2276 34.0468 12.8969 33.0914 12.8969H26.9912V9.46094H33.0914C34.9839 9.46094 36.6008 10.1408 37.9237 11.4821C39.265 12.8234 39.9448 14.4219 39.9448 16.3144C39.9448 18.2069 39.2099 19.9708 37.7583 21.3305" fill="white"/>
<path fill-rule="evenodd" clip-rule="evenodd" d="M65.6133 9.44531L68.9757 11.8155V35.132L65.6133 32.7618V9.44531Z" fill="white"/>
<path fill-rule="evenodd" clip-rule="evenodd" d="M96.6835 22.454V35.132H84.575C81.0105 35.132 77.9972 33.8826 75.48 31.3838C72.9811 28.8849 71.7317 25.8532 71.7317 22.2887C71.7317 18.7241 72.9811 15.7292 75.48 13.1936C77.9788 10.6947 81.0105 9.44531 84.575 9.44531C87.3495 9.44531 89.83 10.2538 92.0532 11.8707C94.2397 13.4508 95.7831 15.4903 96.6835 18.0076H92.9536C92.1635 16.4641 91.0427 15.2331 89.5728 14.296C88.0477 13.359 86.3757 12.8812 84.575 12.8812C81.966 12.8812 79.7427 13.7999 77.9053 15.6373C76.0679 17.4747 75.1492 19.698 75.1492 22.2887C75.1492 24.8794 76.0679 27.121 77.9053 28.9584C79.7427 30.7958 81.966 31.7145 84.575 31.7145H92.9536V25.8716H87.8272L85.4203 22.454H96.6835Z" fill="white"/>
<path fill-rule="evenodd" clip-rule="evenodd" d="M106.311 12.8817C105.374 12.8817 104.566 13.2124 103.904 13.8739C103.225 14.5353 102.876 15.3438 102.876 16.2808C102.876 17.2179 103.225 18.0264 103.904 18.7062C104.566 19.3677 105.374 19.6984 106.311 19.6984H112.283C114.414 19.6984 116.233 20.4333 117.74 21.9216C119.247 23.4283 120 25.2473 120 27.3787C120 29.5101 119.247 31.3291 117.74 32.8357C116.233 34.3424 114.414 35.0957 112.283 35.0957H99.458L101.259 31.6782H112.265C113.459 31.6782 114.469 31.2556 115.315 30.4104C116.16 29.5652 116.582 28.5546 116.582 27.3603C116.582 26.166 116.16 25.1554 115.315 24.3102C114.469 23.465 113.459 23.0976 112.265 23.0976H106.293C104.401 23.0976 102.784 22.4177 101.442 21.0764C100.101 19.7351 99.4396 18.1366 99.4396 16.2441C99.4396 14.3516 100.101 12.7347 101.442 11.4118C102.784 10.0705 104.419 9.39062 106.293 9.39062H118.769L116.968 12.8265H106.293L106.311 12.8817Z" fill="white"/>
<path fill-rule="evenodd" clip-rule="evenodd" d="M58.8517 20.488C59.8255 19.3121 60.3951 17.8238 60.3951 16.1885C60.3951 12.477 57.3634 9.44531 53.6518 9.44531H43.6013V35.3525H54.791C57.8044 35.3525 60.4502 33.6621 61.8099 31.2C62.4346 30.0608 62.7837 28.7563 62.7837 27.3599C62.7837 24.4384 61.2035 21.8844 58.8517 20.488ZM53.6702 13.0099C55.4157 13.0099 56.8489 14.443 56.8489 16.1885C56.8489 17.9341 55.4157 19.3672 53.6702 19.3672H47.1659V13.0099H53.6702ZM54.791 31.788H47.1659V22.9318H54.791C57.2348 22.9318 59.2191 24.9161 59.2191 27.3599C59.2191 29.8036 57.2348 31.788 54.791 31.788Z" fill="white"/>
<path d="M20.3767 10.124C20.3767 9.66468 20.0643 9.24208 19.5498 9.00322L0 0V5.27331C0 5.73266 0.312356 6.15526 0.808452 6.39412L14.1295 12.5861L20.3767 15.4892V11.9798V10.1424V10.124Z" fill="white"/>
<path d="M6.19195 22.3093L10.1975 20.4536L3.67472 17.4219L0.312298 18.9837C0.110185 19.0755 -0.0184326 19.2409 -0.0184326 19.4246V21.5009V19.443L6.17357 22.291L6.19195 22.3093Z" fill="white" fill-opacity="0.5"/>
<path d="M20.3767 15.4734L14.1295 12.5703L10.1975 14.3893L16.7754 17.421L20.0275 15.9144C20.2297 15.8225 20.3583 15.6571 20.3583 15.4734" fill="white" fill-opacity="0.5"/>
<path d="M0 9.70312V14.9764C0 15.4358 0.312356 15.8584 0.808452 16.0972L3.67478 17.4385L10.1975 20.4702L14.1847 22.326L20.3583 25.1923V21.738V19.8455C20.3583 19.3862 20.0459 18.9636 19.5315 18.7247L16.757 17.4569L10.1791 14.4252L0 9.70312Z" fill="white"/>
<path d="M10.2343 24.1655L16.8121 27.1972L20.0643 25.7089C20.2664 25.6171 20.395 25.4517 20.395 25.268V25.1945L14.2214 22.3281L10.2343 24.1839V24.1655Z" fill="white" fill-opacity="0.5"/>
<path d="M0.808452 28.5366C0.312356 28.7755 0 29.1981 0 29.6574V34.9307L10.2343 30.227L3.71153 27.1953L0.826826 28.5366H0.808452Z" fill="white" fill-opacity="0.5"/>
<path d="M0.808452 38.2205C0.312356 38.4594 0 38.882 0 39.3413V44.6146L20.0459 35.3909C20.248 35.2991 20.3767 35.1337 20.3767 34.95L14.1295 32.0469L0.808452 38.2205Z" fill="white" fill-opacity="0.5"/>
<path d="M6.19201 22.3038L0 19.4375V21.4954V24.7108C0 25.115 0.367478 25.6295 0.808452 25.8316L3.69316 27.1729L10.2159 30.2046L14.1295 32.0236L20.3767 34.9267V31.4173V29.5799C20.3767 29.1757 20.0092 28.6612 19.5498 28.4591L16.7938 27.1913L10.2159 24.1596L6.19201 22.3038Z" fill="white"/>
</g>
<defs>
<clipPath id="clip0_997_1162">
<rect width="120" height="44.6119" fill="white"/>
</clipPath>
</defs>
</svg>
