<svg width="120" height="45" viewBox="0 0 120 45" fill="none" xmlns="http://www.w3.org/2000/svg">
<g clip-path="url(#clip0_562_3521)">
<path fill-rule="evenodd" clip-rule="evenodd" d="M37.7767 21.3121C39.7795 22.8555 40.79 24.895 40.79 27.4306C40.79 29.5436 40.0367 31.3626 38.53 32.8693C37.0234 34.376 35.2043 35.1293 33.0914 35.1293H26.9912V31.6566H33.0914C34.2673 31.6566 35.2595 31.2524 36.0863 30.4256C36.9315 29.5987 37.3541 28.6066 37.3541 27.4306C37.3541 26.2547 36.9315 25.2441 36.0863 24.4173C35.2595 23.5905 34.2673 23.1862 33.0914 23.1862H29.6554V19.7136H33.0914C34.0468 19.7136 34.8369 19.3828 35.5167 18.7214C36.1782 18.0599 36.5089 17.2515 36.5089 16.296C36.5089 15.3406 36.1782 14.5505 35.5167 13.889C34.8552 13.2276 34.0468 12.8969 33.0914 12.8969H26.9912V9.46094H33.0914C34.9839 9.46094 36.6008 10.1408 37.9237 11.4821C39.265 12.8234 39.9448 14.4219 39.9448 16.3144C39.9448 18.2069 39.2099 19.9708 37.7583 21.3305" fill="#3E518B"/>
<path fill-rule="evenodd" clip-rule="evenodd" d="M65.6133 9.44531L68.9757 11.8155V35.132L65.6133 32.7618V9.44531Z" fill="#3E518B"/>
<path fill-rule="evenodd" clip-rule="evenodd" d="M96.6837 22.454V35.132H84.5753C81.0108 35.132 77.9974 33.8826 75.4802 31.3838C72.9814 28.8849 71.7319 25.8532 71.7319 22.2887C71.7319 18.7241 72.9814 15.7292 75.4802 13.1936C77.9791 10.6947 81.0108 9.44531 84.5753 9.44531C87.3498 9.44531 89.8302 10.2538 92.0535 11.8707C94.24 13.4508 95.7834 15.4903 96.6837 18.0076H92.9538C92.1637 16.4641 91.0429 15.2331 89.573 14.296C88.048 13.359 86.3759 12.8812 84.5753 12.8812C81.9662 12.8812 79.743 13.7999 77.9056 15.6373C76.0682 17.4747 75.1495 19.698 75.1495 22.2887C75.1495 24.8794 76.0682 27.121 77.9056 28.9584C79.743 30.7958 81.9662 31.7145 84.5753 31.7145H92.9538V25.8716H87.8275L85.4205 22.454H96.6837Z" fill="#3E518B"/>
<path fill-rule="evenodd" clip-rule="evenodd" d="M106.311 12.8817C105.374 12.8817 104.566 13.2124 103.904 13.8739C103.224 14.5353 102.875 15.3438 102.875 16.2808C102.875 17.2179 103.224 18.0264 103.904 18.7062C104.566 19.3677 105.374 19.6984 106.311 19.6984H112.283C114.414 19.6984 116.233 20.4333 117.74 21.9216C119.247 23.4283 120 25.2473 120 27.3787C120 29.5101 119.247 31.3291 117.74 32.8357C116.233 34.3424 114.414 35.0957 112.283 35.0957H99.4578L101.258 31.6782H112.264C113.459 31.6782 114.469 31.2556 115.315 30.4104C116.16 29.5652 116.582 28.5546 116.582 27.3603C116.582 26.166 116.16 25.1554 115.315 24.3102C114.469 23.465 113.459 23.0976 112.264 23.0976H106.293C104.4 23.0976 102.784 22.4177 101.442 21.0764C100.101 19.7351 99.4395 18.1366 99.4395 16.2441C99.4395 14.3516 100.101 12.7347 101.442 11.4118C102.784 10.0705 104.419 9.39062 106.293 9.39062H118.769L116.968 12.8265H106.293L106.311 12.8817Z" fill="#3E518B"/>
<path fill-rule="evenodd" clip-rule="evenodd" d="M58.8514 20.488C59.8252 19.3121 60.3948 17.8238 60.3948 16.1885C60.3948 12.477 57.3631 9.44531 53.6516 9.44531H43.6011V35.3525H54.7908C57.8041 35.3525 60.4499 33.6621 61.8096 31.2C62.4343 30.0608 62.7834 28.7563 62.7834 27.3599C62.7834 24.4384 61.2033 21.8844 58.8514 20.488ZM53.67 13.0099C55.4155 13.0099 56.8487 14.443 56.8487 16.1885C56.8487 17.9341 55.4155 19.3672 53.67 19.3672H47.1656V13.0099H53.67ZM54.7908 31.788H47.1656V22.9318H54.7908C57.2345 22.9318 59.2189 24.9161 59.2189 27.3599C59.2189 29.8036 57.2345 31.788 54.7908 31.788Z" fill="#3E518B"/>
<path d="M20.3767 10.124C20.3767 9.66468 20.0643 9.24208 19.5498 9.00322L0 0V5.27331C0 5.73266 0.312356 6.15526 0.808452 6.39412L14.1295 12.5861L20.3767 15.4892V11.9798V10.1424V10.124Z" fill="#C84936"/>
<path d="M6.19183 22.3093L10.1973 20.4536L3.6746 17.4219L0.312176 18.9837C0.110063 19.0755 -0.0185547 19.2409 -0.0185547 19.4246V21.5009V19.443L6.17345 22.291L6.19183 22.3093Z" fill="#3C4E84"/>
<path d="M20.3769 15.4734L14.1298 12.5703L10.1978 14.3893L16.7756 17.421L20.0278 15.9144C20.2299 15.8225 20.3585 15.6571 20.3585 15.4734" fill="#3C4E84"/>
<path d="M0 9.70312V14.9764C0 15.4358 0.312356 15.8584 0.808452 16.0972L3.67478 17.4385L10.1975 20.4702L14.1847 22.326L20.3583 25.1923V21.738V19.8455C20.3583 19.3862 20.0459 18.9636 19.5315 18.7247L16.757 17.4569L10.1791 14.4252L0 9.70312Z" fill="#E3E2E3"/>
<path d="M10.2344 24.1655L16.8122 27.1972L20.0644 25.7089C20.2665 25.6171 20.3951 25.4517 20.3951 25.268V25.1945L14.2215 22.3281L10.2344 24.1839V24.1655Z" fill="#D8D7D8"/>
<path d="M6.19201 22.3038L0 19.4375V21.4954V24.7108C0 25.115 0.367478 25.6295 0.808452 25.8316L3.69316 27.1729L10.2159 30.2046L14.1295 32.0236L20.3767 34.9267V31.4173V29.5799C20.3767 29.1757 20.0092 28.6612 19.5498 28.4591L16.7938 27.1913L10.2159 24.1596L6.19201 22.3038Z" fill="#5B85AD"/>
<path d="M0.808452 28.5366C0.312356 28.7755 0 29.1981 0 29.6574V34.9307L10.2343 30.227L3.71153 27.1953L0.826826 28.5366H0.808452Z" fill="#D8D7D8"/>
<path d="M0.808452 38.2205C0.312356 38.4594 0 38.882 0 39.3413V44.6146L20.0459 35.3909C20.248 35.2991 20.3767 35.1337 20.3767 34.95L14.1295 32.0469L0.808452 38.2205Z" fill="#83B970"/>
</g>
<defs>
<clipPath id="clip0_562_3521">
<rect width="120" height="44.6119" fill="white"/>
</clipPath>
</defs>
</svg>
